<svg width="489" height="239" viewBox="0 0 489 239" fill="none" xmlns="http://www.w3.org/2000/svg">
<path d="M17.8889 0.447222H470.478C480.111 0.447222 487.919 8.25612 487.919 17.8889V220.928C487.919 230.561 480.111 238.369 470.478 238.369H17.8889C8.25618 238.369 0.447283 230.561 0.447283 220.928V17.8889C0.447283 8.25611 8.25618 0.447222 17.8889 0.447222Z" fill="white" stroke="#EFF0F6" stroke-width="0.894444"/>
<path d="M50.3282 210.079H51.2087L51.2087 214.23C51.2087 214.605 51.1344 214.926 50.9857 215.193C50.839 215.46 50.6322 215.664 50.3654 215.805C50.0986 215.944 49.786 216.013 49.4277 216.013C49.098 216.013 48.8017 215.953 48.5387 215.833C48.2776 215.713 48.0708 215.539 47.9184 215.31C47.7678 215.08 47.6925 214.799 47.6925 214.47H48.5701C48.5701 214.632 48.6073 214.772 48.6816 214.89C48.7579 215.008 48.8617 215.101 48.9932 215.167C49.1266 215.232 49.2791 215.264 49.4506 215.264C49.6374 215.264 49.7956 215.225 49.9251 215.147C50.0566 215.067 50.1567 214.95 50.2253 214.796C50.2939 214.641 50.3282 214.453 50.3282 214.23L50.3282 210.079ZM52.9889 215.933H52.0513L54.1581 210.079H55.1787L57.2855 215.933H56.3478L54.6927 211.142H54.6469L52.9889 215.933ZM53.1461 213.641H56.1878L56.1878 214.384H53.1461L53.1461 213.641ZM62.8563 210.079L62.8563 215.933H62.0445L59.0686 211.64H59.0143L59.0143 215.933H58.1309L58.1309 210.079H58.9485L61.9272 214.378H61.9816L61.9816 210.079H62.8563Z" fill="#838383"/>
<path d="M156.387 215.933H155.449L157.556 210.079H158.576L160.683 215.933H159.746L158.091 211.142H158.045L156.387 215.933ZM156.544 213.641H159.586L159.586 214.384H156.544L156.544 213.641ZM161.529 215.933L161.529 210.079H163.616C164.071 210.079 164.448 210.162 164.748 210.328C165.047 210.493 165.271 210.72 165.419 211.008C165.568 211.294 165.642 211.616 165.642 211.974C165.642 212.334 165.567 212.658 165.417 212.946C165.268 213.232 165.043 213.459 164.742 213.626C164.443 213.792 164.066 213.875 163.613 213.875H162.178L162.178 213.126H163.533C163.82 213.126 164.054 213.077 164.233 212.977C164.412 212.876 164.544 212.739 164.628 212.566C164.711 212.392 164.753 212.195 164.753 211.974C164.753 211.753 164.711 211.557 164.628 211.385C164.544 211.214 164.411 211.079 164.23 210.982C164.051 210.885 163.815 210.836 163.521 210.836H162.412L162.412 215.933H161.529ZM166.678 215.933L166.678 210.079H168.765C169.218 210.079 169.595 210.157 169.894 210.313C170.195 210.469 170.42 210.686 170.569 210.962C170.717 211.237 170.792 211.554 170.792 211.914C170.792 212.272 170.716 212.588 170.566 212.86C170.417 213.131 170.192 213.341 169.891 213.492C169.592 213.643 169.215 213.718 168.762 213.718H167.181L167.181 212.957H168.682C168.968 212.957 169.2 212.917 169.379 212.835C169.56 212.753 169.693 212.633 169.777 212.477C169.861 212.321 169.903 212.133 169.903 211.914C169.903 211.693 169.86 211.501 169.774 211.339C169.69 211.177 169.558 211.054 169.377 210.968C169.197 210.88 168.962 210.836 168.67 210.836H167.561L167.561 215.933H166.678ZM169.568 213.292L171.015 215.933H170.008L168.59 213.292H169.568Z" fill="#838383"/>
<path d="M266.475 210.079H267.355L267.355 214.23C267.355 214.605 267.281 214.926 267.132 215.193C266.986 215.46 266.779 215.664 266.512 215.805C266.245 215.944 265.933 216.013 265.574 216.013C265.245 216.013 264.948 215.953 264.685 215.833C264.424 215.713 264.218 215.539 264.065 215.31C263.915 215.08 263.839 214.799 263.839 214.47H264.717C264.717 214.632 264.754 214.772 264.828 214.89C264.905 215.008 265.008 215.101 265.14 215.167C265.273 215.232 265.426 215.264 265.597 215.264C265.784 215.264 265.942 215.225 266.072 215.147C266.203 215.067 266.303 214.95 266.372 214.796C266.441 214.641 266.475 214.453 266.475 214.23L266.475 210.079ZM272.406 210.079H273.292L273.292 213.929C273.292 214.339 273.196 214.702 273.003 215.019C272.811 215.333 272.54 215.581 272.192 215.762C271.843 215.941 271.434 216.031 270.965 216.031C270.498 216.031 270.09 215.941 269.742 215.762C269.393 215.581 269.122 215.333 268.93 215.019C268.737 214.702 268.641 214.339 268.641 213.929L268.641 210.079H269.524L269.524 213.858C269.524 214.123 269.583 214.358 269.699 214.564C269.817 214.77 269.984 214.932 270.199 215.05C270.414 215.166 270.67 215.224 270.965 215.224C271.263 215.224 271.519 215.166 271.734 215.05C271.951 214.932 272.117 214.77 272.232 214.564C272.348 214.358 272.406 214.123 272.406 213.858L272.406 210.079ZM274.576 215.933L274.576 210.079H275.46L275.46 215.173H278.113L278.113 215.933H274.576Z" fill="#838383"/>
<path d="M380.323 213.006C380.323 213.631 380.209 214.169 379.98 214.618C379.752 215.066 379.438 215.411 379.04 215.653C378.643 215.893 378.193 216.013 377.688 216.013C377.181 216.013 376.728 215.893 376.33 215.653C375.933 215.411 375.621 215.065 375.392 214.616C375.163 214.166 375.049 213.629 375.049 213.006C375.049 212.381 375.163 211.845 375.392 211.397C375.621 210.947 375.933 210.602 376.33 210.362C376.728 210.12 377.181 209.999 377.688 209.999C378.193 209.999 378.643 210.12 379.04 210.362C379.438 210.602 379.752 210.947 379.98 211.397C380.209 211.845 380.323 212.381 380.323 213.006ZM379.448 213.006C379.448 212.53 379.371 212.128 379.217 211.803C379.064 211.475 378.855 211.227 378.588 211.059C378.323 210.89 378.023 210.805 377.688 210.805C377.35 210.805 377.049 210.89 376.784 211.059C376.519 211.227 376.31 211.475 376.155 211.803C376.003 212.128 375.927 212.53 375.927 213.006C375.927 213.483 376.003 213.885 376.155 214.212C376.31 214.538 376.519 214.786 376.784 214.956C377.049 215.123 377.35 215.207 377.688 215.207C378.023 215.207 378.323 215.123 378.588 214.956C378.855 214.786 379.064 214.538 379.217 214.212C379.371 213.885 379.448 213.483 379.448 213.006ZM386.287 211.983H385.395C385.361 211.792 385.297 211.624 385.204 211.48C385.11 211.335 384.996 211.212 384.861 211.111C384.725 211.01 384.574 210.934 384.406 210.882C384.24 210.831 384.064 210.805 383.877 210.805C383.54 210.805 383.238 210.89 382.971 211.059C382.706 211.229 382.497 211.478 382.342 211.805C382.19 212.133 382.113 212.533 382.113 213.006C382.113 213.483 382.19 213.885 382.342 214.212C382.497 214.54 382.707 214.788 382.974 214.956C383.241 215.123 383.541 215.207 383.874 215.207C384.059 215.207 384.235 215.182 384.4 215.133C384.568 215.081 384.72 215.006 384.855 214.907C384.99 214.808 385.105 214.687 385.198 214.544C385.293 214.399 385.359 214.233 385.395 214.047L386.287 214.049C386.239 214.337 386.147 214.602 386.01 214.844C385.875 215.084 385.7 215.292 385.487 215.467C385.275 215.641 385.033 215.775 384.761 215.87C384.488 215.966 384.191 216.013 383.869 216.013C383.362 216.013 382.91 215.893 382.514 215.653C382.117 215.411 381.805 215.065 381.576 214.616C381.349 214.166 381.236 213.629 381.236 213.006C381.236 212.381 381.35 211.845 381.579 211.397C381.808 210.947 382.12 210.602 382.517 210.362C382.913 210.12 383.364 209.999 383.869 209.999C384.179 209.999 384.469 210.044 384.738 210.133C385.008 210.221 385.251 210.35 385.467 210.522C385.682 210.692 385.86 210.899 386.001 211.145C386.142 211.389 386.238 211.668 386.287 211.983ZM387.055 210.839L387.055 210.079H391.586L391.586 210.839H389.76L389.76 215.933H388.879L388.879 210.839H387.055Z" fill="#838383"/>
<path d="M84.0121 215.933L84.0121 210.079H87.6426L87.6426 210.839H84.8954L84.8954 212.623H87.3825L87.3825 213.381H84.8954L84.8954 215.933H84.0121ZM88.7289 215.933L88.7289 210.079H92.3994L92.3994 210.839H89.6122L89.6122 212.623H92.2079L92.2079 213.381H89.6122L89.6122 215.173H92.4337L92.4337 215.933H88.7289ZM93.5794 215.933L93.5794 210.079H95.7234C96.1388 210.079 96.4828 210.147 96.7553 210.285C97.0279 210.42 97.2318 210.604 97.3671 210.836C97.5024 211.067 97.5701 211.327 97.5701 211.617C97.5701 211.861 97.5253 212.067 97.4357 212.234C97.3461 212.4 97.2261 212.533 97.0755 212.634C96.9269 212.734 96.763 212.806 96.5838 212.852L96.5838 212.909C96.7782 212.918 96.9678 212.981 97.1527 213.098C97.3395 213.212 97.4938 213.375 97.6158 213.586C97.7378 213.798 97.7987 214.055 97.7987 214.358C97.7987 214.657 97.7282 214.926 97.5872 215.164C97.4481 215.401 97.2327 215.588 96.9411 215.728C96.6496 215.865 96.277 215.933 95.8234 215.933H93.5794ZM94.4627 215.176H95.7377C96.1607 215.176 96.4638 215.094 96.6467 214.93C96.8297 214.766 96.9211 214.561 96.9211 214.315C96.9211 214.13 96.8744 213.961 96.7811 213.807C96.6877 213.652 96.5543 213.529 96.3808 213.438C96.2093 213.346 96.0054 213.301 95.7691 213.301H94.4627L94.4627 215.176ZM94.4627 212.612H95.6462C95.8444 212.612 96.0226 212.573 96.1807 212.497C96.3408 212.421 96.4676 212.314 96.5609 212.177C96.6562 212.038 96.7039 211.874 96.7039 211.685C96.7039 211.443 96.6191 211.24 96.4495 211.076C96.2798 210.913 96.0197 210.831 95.669 210.831H94.4627L94.4627 212.612Z" fill="#838383"/>
<path d="M191.664 210.079H192.736L194.6 214.63H194.669L196.533 210.079H197.605L197.605 215.933H196.764L196.764 211.697H196.71L194.983 215.925H194.286L192.559 211.694H192.505L192.505 215.933H191.664L191.664 210.079ZM199.383 215.933H198.446L200.553 210.079H201.573L203.68 215.933H202.742L201.087 211.142H201.041L199.383 215.933ZM199.541 213.641H202.582L202.582 214.384H199.541L199.541 213.641ZM203.476 210.079H204.48L206.009 212.74H206.072L207.601 210.079H208.605L206.481 213.635L206.481 215.933H205.6L205.6 213.635L203.476 210.079Z" fill="#838383"/>
<path d="M300.92 215.933H299.983L302.089 210.079H303.11L305.217 215.933H304.279L302.624 211.142H302.578L300.92 215.933ZM301.077 213.641H304.119L304.119 214.384H301.077L301.077 213.641ZM309.827 210.079H310.713L310.713 213.929C310.713 214.339 310.617 214.702 310.425 215.019C310.232 215.333 309.961 215.581 309.613 215.762C309.264 215.941 308.855 216.031 308.386 216.031C307.919 216.031 307.512 215.941 307.163 215.762C306.814 215.581 306.543 215.333 306.351 215.019C306.159 214.702 306.062 214.339 306.062 213.929L306.062 210.079H306.946L306.946 213.858C306.946 214.123 307.004 214.358 307.12 214.564C307.238 214.77 307.405 214.932 307.62 215.05C307.836 215.166 308.091 215.224 308.386 215.224C308.684 215.224 308.94 215.166 309.155 215.05C309.373 214.932 309.538 214.77 309.653 214.564C309.769 214.358 309.827 214.123 309.827 213.858L309.827 210.079ZM315.96 211.928C315.904 211.755 315.83 211.6 315.737 211.462C315.645 211.323 315.536 211.205 315.408 211.108C315.28 211.009 315.134 210.934 314.971 210.882C314.809 210.831 314.63 210.805 314.436 210.805C314.106 210.805 313.809 210.89 313.544 211.059C313.279 211.229 313.07 211.478 312.915 211.805C312.763 212.131 312.687 212.531 312.687 213.003C312.687 213.478 312.764 213.879 312.918 214.207C313.072 214.535 313.284 214.783 313.553 214.953C313.821 215.122 314.127 215.207 314.47 215.207C314.789 215.207 315.066 215.142 315.302 215.013C315.54 214.883 315.724 214.7 315.854 214.464C315.985 214.226 316.051 213.946 316.051 213.624L316.28 213.666H314.605L314.605 212.937H316.906L316.906 213.604C316.906 214.095 316.801 214.522 316.591 214.884C316.384 215.244 316.096 215.523 315.728 215.719C315.362 215.915 314.943 216.013 314.47 216.013C313.941 216.013 313.476 215.891 313.075 215.647C312.677 215.404 312.366 215.058 312.143 214.61C311.92 214.16 311.809 213.626 311.809 213.009C311.809 212.542 311.874 212.123 312.003 211.751C312.133 211.379 312.315 211.064 312.549 210.805C312.786 210.544 313.063 210.345 313.381 210.207C313.701 210.068 314.051 209.999 314.43 209.999C314.747 209.999 315.041 210.045 315.314 210.139C315.588 210.232 315.832 210.365 316.045 210.536C316.261 210.708 316.439 210.912 316.58 211.148C316.721 211.382 316.816 211.642 316.866 211.928H315.96Z" fill="#838383"/>
<path d="M417.431 210.079L417.431 215.933H416.62L413.644 211.64H413.589L413.589 215.933H412.706L412.706 210.079H413.524L416.502 214.378H416.557L416.557 210.079H417.431ZM423.806 213.006C423.806 213.631 423.691 214.169 423.463 214.618C423.234 215.066 422.92 215.411 422.522 215.653C422.126 215.893 421.675 216.013 421.17 216.013C420.663 216.013 420.21 215.893 419.812 215.653C419.416 215.411 419.103 215.065 418.874 214.616C418.646 214.166 418.531 213.629 418.531 213.006C418.531 212.381 418.646 211.845 418.874 211.397C419.103 210.947 419.416 210.602 419.812 210.362C420.21 210.12 420.663 209.999 421.17 209.999C421.675 209.999 422.126 210.12 422.522 210.362C422.92 210.602 423.234 210.947 423.463 211.397C423.691 211.845 423.806 212.381 423.806 213.006ZM422.931 213.006C422.931 212.53 422.854 212.128 422.699 211.803C422.547 211.475 422.337 211.227 422.07 211.059C421.805 210.89 421.505 210.805 421.17 210.805C420.833 210.805 420.531 210.89 420.267 211.059C420.002 211.227 419.792 211.475 419.638 211.803C419.485 212.128 419.409 212.53 419.409 213.006C419.409 213.483 419.485 213.885 419.638 214.212C419.792 214.538 420.002 214.786 420.267 214.956C420.531 215.123 420.833 215.207 421.17 215.207C421.505 215.207 421.805 215.123 422.07 214.956C422.337 214.786 422.547 214.538 422.699 214.212C422.854 213.885 422.931 213.483 422.931 213.006ZM425.128 210.079L426.757 214.847H426.823L428.452 210.079H429.407L427.3 215.933H426.28L424.173 210.079H425.128Z" fill="#838383"/>
<path d="M117.735 210.551H118.807L120.671 215.102H120.739L122.603 210.551H123.675L123.675 216.406H122.835L122.835 212.169H122.781L121.054 216.397H120.356L118.63 212.166H118.575L118.575 216.406H117.735L117.735 210.551ZM125.454 216.406H124.517L126.623 210.551H127.644L129.751 216.406H128.813L127.158 211.614H127.112L125.454 216.406ZM125.611 214.113H128.653L128.653 214.856H125.611L125.611 214.113ZM130.596 216.406L130.596 210.551H132.683C133.137 210.551 133.513 210.629 133.812 210.785C134.113 210.942 134.338 211.158 134.487 211.434C134.635 211.709 134.71 212.026 134.71 212.386C134.71 212.745 134.635 213.06 134.484 213.332C134.335 213.603 134.11 213.814 133.809 213.964C133.51 214.115 133.134 214.19 132.68 214.19H131.099L131.099 213.43H132.6C132.886 213.43 133.118 213.389 133.298 213.307C133.479 213.225 133.611 213.106 133.695 212.949C133.779 212.793 133.821 212.605 133.821 212.386C133.821 212.165 133.778 211.974 133.692 211.812C133.608 211.65 133.476 211.526 133.295 211.44C133.116 211.352 132.88 211.309 132.589 211.309H131.479L131.479 216.406H130.596ZM133.486 213.764L134.933 216.406H133.927L132.509 213.764H133.486Z" fill="#838383"/>
<path d="M231.751 210.079H232.631L232.631 214.23C232.631 214.605 232.557 214.926 232.409 215.193C232.262 215.46 232.055 215.664 231.788 215.805C231.521 215.944 231.209 216.013 230.851 216.013C230.521 216.013 230.225 215.953 229.962 215.833C229.7 215.713 229.494 215.539 229.341 215.31C229.191 215.08 229.115 214.799 229.115 214.47H229.993C229.993 214.632 230.03 214.772 230.104 214.89C230.181 215.008 230.285 215.101 230.416 215.167C230.549 215.232 230.702 215.264 230.873 215.264C231.06 215.264 231.218 215.225 231.348 215.147C231.479 215.067 231.58 214.95 231.648 214.796C231.717 214.641 231.751 214.453 231.751 214.23L231.751 210.079ZM237.682 210.079H238.568L238.568 213.929C238.568 214.339 238.472 214.702 238.28 215.019C238.087 215.333 237.816 215.581 237.468 215.762C237.119 215.941 236.71 216.031 236.241 216.031C235.774 216.031 235.367 215.941 235.018 215.762C234.669 215.581 234.398 215.333 234.206 215.019C234.013 214.702 233.917 214.339 233.917 213.929L233.917 210.079H234.801L234.801 213.858C234.801 214.123 234.859 214.358 234.975 214.564C235.093 214.77 235.26 214.932 235.475 215.05C235.691 215.166 235.946 215.224 236.241 215.224C236.539 215.224 236.795 215.166 237.01 215.05C237.228 214.932 237.393 214.77 237.508 214.564C237.624 214.358 237.682 214.123 237.682 213.858L237.682 210.079ZM244.578 210.079L244.578 215.933H243.766L240.79 211.64H240.736L240.736 215.933H239.852L239.852 210.079H240.67L243.649 214.378H243.703L243.703 210.079H244.578Z" fill="#838383"/>
<path d="M341.949 211.617C341.918 211.346 341.793 211.137 341.572 210.988C341.351 210.837 341.072 210.762 340.737 210.762C340.497 210.762 340.289 210.8 340.114 210.876C339.938 210.951 339.802 211.054 339.705 211.185C339.61 211.315 339.562 211.462 339.562 211.628C339.562 211.767 339.594 211.887 339.659 211.988C339.726 212.089 339.813 212.174 339.919 212.243C340.028 212.31 340.144 212.366 340.268 212.411C340.392 212.455 340.511 212.492 340.625 212.52L341.197 212.669C341.384 212.714 341.575 212.776 341.772 212.855C341.968 212.933 342.15 213.036 342.318 213.163C342.485 213.291 342.621 213.449 342.724 213.638C342.829 213.827 342.881 214.052 342.881 214.315C342.881 214.647 342.795 214.941 342.624 215.199C342.454 215.456 342.207 215.659 341.883 215.808C341.561 215.956 341.171 216.031 340.714 216.031C340.276 216.031 339.896 215.961 339.576 215.822C339.256 215.683 339.006 215.485 338.824 215.23C338.643 214.973 338.543 214.668 338.524 214.315H339.41C339.428 214.527 339.496 214.703 339.616 214.844C339.738 214.983 339.894 215.087 340.082 215.156C340.273 215.222 340.482 215.256 340.708 215.256C340.958 215.256 341.18 215.217 341.374 215.139C341.571 215.059 341.725 214.948 341.838 214.807C341.95 214.664 342.006 214.497 342.006 214.307C342.006 214.133 341.957 213.991 341.858 213.881C341.76 213.77 341.628 213.679 341.46 213.606C341.294 213.534 341.107 213.47 340.897 213.415L340.205 213.226C339.736 213.099 339.365 212.911 339.09 212.663C338.818 212.415 338.682 212.087 338.682 211.68C338.682 211.342 338.773 211.048 338.956 210.796C339.139 210.545 339.387 210.349 339.699 210.21C340.012 210.069 340.364 209.999 340.757 209.999C341.153 209.999 341.503 210.068 341.806 210.207C342.111 210.347 342.351 210.538 342.526 210.782C342.702 211.024 342.793 211.302 342.801 211.617H341.949ZM343.936 215.933L343.936 210.079H347.607L347.607 210.839H344.82L344.82 212.623H347.415L347.415 213.381H344.82L344.82 215.173H347.641L347.641 215.933H343.936ZM348.787 215.933L348.787 210.079H350.874C351.329 210.079 351.707 210.162 352.006 210.328C352.305 210.493 352.529 210.72 352.678 211.008C352.826 211.294 352.901 211.616 352.901 211.974C352.901 212.334 352.825 212.658 352.675 212.946C352.526 213.232 352.301 213.459 352 213.626C351.701 213.792 351.324 213.875 350.871 213.875H349.436L349.436 213.126H350.791C351.079 213.126 351.312 213.077 351.491 212.977C351.67 212.876 351.802 212.739 351.886 212.566C351.97 212.392 352.011 212.195 352.011 211.974C352.011 211.753 351.97 211.557 351.886 211.385C351.802 211.214 351.669 211.079 351.488 210.982C351.309 210.885 351.073 210.836 350.779 210.836H349.67L349.67 215.933H348.787Z" fill="#838383"/>
<path d="M450.863 215.933H448.967L448.967 210.079H450.923C451.496 210.079 451.989 210.196 452.401 210.43C452.812 210.663 453.128 210.997 453.347 211.434C453.568 211.868 453.678 212.39 453.678 212.998C453.678 213.607 453.567 214.131 453.344 214.57C453.123 215.008 452.803 215.345 452.383 215.582C451.964 215.816 451.457 215.933 450.863 215.933ZM449.851 215.162H450.814C451.26 215.162 451.631 215.078 451.926 214.91C452.221 214.74 452.443 214.495 452.589 214.175C452.736 213.853 452.809 213.461 452.809 212.998C452.809 212.538 452.736 212.148 452.589 211.828C452.444 211.508 452.228 211.265 451.94 211.099C451.653 210.934 451.295 210.851 450.868 210.851H449.851L449.851 215.162ZM454.777 215.933L454.777 210.079H458.447L458.447 210.839H455.66L455.66 212.623H458.256L458.256 213.381H455.66L455.66 215.173H458.482L458.482 215.933H454.777ZM464.49 211.983H463.598C463.564 211.792 463.5 211.624 463.406 211.48C463.313 211.335 463.199 211.212 463.063 211.111C462.928 211.01 462.777 210.934 462.609 210.882C462.443 210.831 462.267 210.805 462.08 210.805C461.743 210.805 461.441 210.89 461.174 211.059C460.909 211.229 460.699 211.478 460.545 211.805C460.392 212.133 460.316 212.533 460.316 213.006C460.316 213.483 460.392 213.885 460.545 214.212C460.699 214.54 460.91 214.788 461.177 214.956C461.443 215.123 461.744 215.207 462.077 215.207C462.262 215.207 462.437 215.182 462.603 215.133C462.771 215.081 462.922 215.006 463.058 214.907C463.193 214.808 463.307 214.687 463.401 214.544C463.496 214.399 463.562 214.233 463.598 214.047L464.49 214.049C464.442 214.337 464.35 214.602 464.213 214.844C464.077 215.084 463.903 215.292 463.689 215.467C463.478 215.641 463.236 215.775 462.963 215.87C462.691 215.966 462.394 216.013 462.071 216.013C461.565 216.013 461.113 215.893 460.716 215.653C460.32 215.411 460.007 215.065 459.779 214.616C459.552 214.166 459.439 213.629 459.439 213.006C459.439 212.381 459.553 211.845 459.782 211.397C460.01 210.947 460.323 210.602 460.719 210.362C461.116 210.12 461.566 209.999 462.071 209.999C462.382 209.999 462.672 210.044 462.94 210.133C463.211 210.221 463.454 210.35 463.669 210.522C463.885 210.692 464.063 210.899 464.204 211.145C464.345 211.389 464.44 211.668 464.49 211.983Z" fill="#838383"/>
<g opacity="0.5">
<path d="M17.743 64.4461V70.7856H16.5946V65.5635H16.5574L15.0747 66.5108V65.4583L16.6503 64.4461H17.743ZM21.6959 70.9064C21.1862 70.9064 20.7487 70.7774 20.3835 70.5194C20.0202 70.2594 19.7406 69.8849 19.5446 69.3958C19.3506 68.9046 19.2536 68.3134 19.2536 67.622C19.2557 66.9307 19.3537 66.3426 19.5477 65.8576C19.7437 65.3706 20.0233 64.9991 20.3865 64.7432C20.7518 64.4873 21.1883 64.3594 21.6959 64.3594C22.2036 64.3594 22.6401 64.4873 23.0053 64.7432C23.3706 64.9991 23.6502 65.3706 23.8442 65.8576C24.0403 66.3446 24.1383 66.9328 24.1383 67.622C24.1383 68.3154 24.0403 68.9077 23.8442 69.3989C23.6502 69.8879 23.3706 70.2615 23.0053 70.5194C22.6421 70.7774 22.2057 70.9064 21.6959 70.9064ZM21.6959 69.9375C22.0922 69.9375 22.4048 69.7425 22.6339 69.3524C22.865 68.9603 22.9806 68.3835 22.9806 67.622C22.9806 67.1185 22.928 66.6955 22.8227 66.3529C22.7175 66.0103 22.5689 65.7524 22.377 65.579C22.185 65.4036 21.958 65.3159 21.6959 65.3159C21.3018 65.3159 20.9902 65.5119 20.7611 65.904C20.532 66.2941 20.4165 66.8667 20.4144 67.622C20.4123 68.1276 20.4629 68.5528 20.5661 68.8974C20.6713 69.242 20.8199 69.502 21.0118 69.6775C21.2038 69.8508 21.4318 69.9375 21.6959 69.9375ZM27.5101 70.9064C27.0003 70.9064 26.5628 70.7774 26.1976 70.5194C25.8344 70.2594 25.5547 69.8849 25.3587 69.3958C25.1647 68.9046 25.0677 68.3134 25.0677 67.622C25.0698 66.9307 25.1678 66.3426 25.3618 65.8576C25.5578 65.3706 25.8375 64.9991 26.2007 64.7432C26.5659 64.4873 27.0024 64.3594 27.5101 64.3594C28.0177 64.3594 28.4542 64.4873 28.8195 64.7432C29.1847 64.9991 29.4644 65.3706 29.6583 65.8576C29.8544 66.3446 29.9524 66.9328 29.9524 67.622C29.9524 68.3154 29.8544 68.9077 29.6583 69.3989C29.4644 69.8879 29.1847 70.2615 28.8195 70.5194C28.4563 70.7774 28.0198 70.9064 27.5101 70.9064ZM27.5101 69.9375C27.9063 69.9375 28.2189 69.7425 28.448 69.3524C28.6791 68.9603 28.7947 68.3835 28.7947 67.622C28.7947 67.1185 28.7421 66.6955 28.6368 66.3529C28.5316 66.0103 28.383 65.7524 28.1911 65.579C27.9992 65.4036 27.7722 65.3159 27.5101 65.3159C27.1159 65.3159 26.8043 65.5119 26.5752 65.904C26.3462 66.2941 26.2306 66.8667 26.2285 67.622C26.2265 68.1276 26.277 68.5528 26.3802 68.8974C26.4855 69.242 26.634 69.502 26.826 69.6775C27.0179 69.8508 27.2459 69.9375 27.5101 69.9375ZM34.3705 69.597V69.2627C34.3705 69.0171 34.4221 68.7911 34.5252 68.5847C34.6305 68.3784 34.7832 68.2123 34.9834 68.0864C35.1836 67.9605 35.426 67.8975 35.7108 67.8975C36.0039 67.8975 36.2494 67.9605 36.4475 68.0864C36.6457 68.2102 36.7953 68.3753 36.8964 68.5816C36.9996 68.788 37.0512 69.015 37.0512 69.2627V69.597C37.0512 69.8425 36.9996 70.0685 36.8964 70.2749C36.7932 70.4813 36.6415 70.6474 36.4414 70.7733C36.2432 70.8991 35.9997 70.9621 35.7108 70.9621C35.4219 70.9621 35.1774 70.8991 34.9772 70.7733C34.777 70.6474 34.6253 70.4813 34.5221 70.2749C34.421 70.0685 34.3705 69.8425 34.3705 69.597ZM35.1784 69.2627V69.597C35.1784 69.76 35.2176 69.9096 35.296 70.0458C35.3744 70.182 35.5127 70.2501 35.7108 70.2501C35.911 70.2501 36.0482 70.1831 36.1225 70.0489C36.1989 69.9127 36.2371 69.7621 36.2371 69.597V69.2627C36.2371 69.0976 36.2009 68.9469 36.1287 68.8107C36.0565 68.6724 35.9172 68.6033 35.7108 68.6033C35.5168 68.6033 35.3796 68.6724 35.2991 68.8107C35.2186 68.9469 35.1784 69.0976 35.1784 69.2627ZM31.1481 65.969V65.6347C31.1481 65.3871 31.2007 65.1601 31.3059 64.9537C31.4112 64.7474 31.5639 64.5823 31.7641 64.4584C31.9642 64.3326 32.2067 64.2696 32.4915 64.2696C32.7825 64.2696 33.027 64.3326 33.2251 64.4584C33.4253 64.5823 33.576 64.7474 33.6771 64.9537C33.7782 65.1601 33.8288 65.3871 33.8288 65.6347V65.969C33.8288 66.2167 33.7772 66.4437 33.674 66.6501C33.5729 66.8544 33.4222 67.0184 33.222 67.1422C33.0219 67.2661 32.7783 67.328 32.4915 67.328C32.2005 67.328 31.9549 67.2661 31.7548 67.1422C31.5567 67.0184 31.406 66.8533 31.3028 66.647C31.1996 66.4406 31.1481 66.2146 31.1481 65.969ZM31.9622 65.6347V65.969C31.9622 66.1341 32.0003 66.2848 32.0767 66.421C32.1551 66.5551 32.2934 66.6222 32.4915 66.6222C32.6896 66.6222 32.8258 66.5551 32.9001 66.421C32.9765 66.2848 33.0146 66.1341 33.0146 65.969V65.6347C33.0146 65.4696 32.9785 65.319 32.9063 65.1828C32.8341 65.0445 32.6958 64.9754 32.4915 64.9754C32.2955 64.9754 32.1582 65.0445 32.0798 65.1828C32.0014 65.3211 31.9622 65.4717 31.9622 65.6347ZM31.5009 70.7856L35.8594 64.4461H36.6333L32.2748 70.7856H31.5009Z" fill="black"/>
<path d="M22.0132 96.0089C22.3166 96.011 22.6117 96.0646 22.8985 96.1699C23.1874 96.2731 23.4475 96.4423 23.6786 96.6776C23.9097 96.9107 24.0934 97.2234 24.2296 97.6155C24.3658 98.0076 24.4339 98.4925 24.4339 99.0704C24.436 99.6152 24.3782 100.102 24.2605 100.531C24.145 100.959 23.9789 101.32 23.7622 101.615C23.5455 101.91 23.2844 102.135 22.979 102.29C22.6736 102.444 22.33 102.522 21.9482 102.522C21.5479 102.522 21.1929 102.443 20.8834 102.287C20.5759 102.13 20.3272 101.915 20.1373 101.643C19.9475 101.37 19.8309 101.059 19.7875 100.708H20.9174C20.9752 100.96 21.0928 101.16 21.2703 101.308C21.4498 101.455 21.6758 101.528 21.9482 101.528C22.3878 101.528 22.7262 101.337 22.9635 100.956C23.2009 100.574 23.3195 100.043 23.3195 99.3644H23.2762C23.1751 99.546 23.044 99.7029 22.883 99.835C22.7221 99.965 22.5394 100.065 22.3351 100.135C22.1329 100.205 21.9183 100.24 21.6913 100.24C21.3198 100.24 20.9855 100.152 20.6883 99.9743C20.3932 99.7968 20.159 99.5533 19.9857 99.2437C19.8144 98.9342 19.7277 98.5803 19.7256 98.182C19.7256 97.7692 19.8206 97.3988 20.0104 97.0707C20.2023 96.7405 20.4696 96.4805 20.8122 96.2906C21.1547 96.0987 21.5551 96.0048 22.0132 96.0089ZM22.0163 96.9376C21.7934 96.9376 21.5922 96.9923 21.4127 97.1016C21.2352 97.2089 21.0949 97.3555 20.9917 97.5412C20.8906 97.7249 20.84 97.9302 20.84 98.1572C20.8421 98.3821 20.8926 98.5864 20.9917 98.7701C21.0928 98.9538 21.2301 99.0993 21.4034 99.2066C21.5788 99.3139 21.779 99.3675 22.0039 99.3675C22.1711 99.3675 22.3269 99.3356 22.4713 99.2716C22.6158 99.2076 22.7417 99.1189 22.849 99.0054C22.9584 98.8898 23.043 98.7588 23.1028 98.6122C23.1647 98.4657 23.1947 98.3109 23.1926 98.1479C23.1926 97.9312 23.141 97.7311 23.0378 97.5474C22.9367 97.3637 22.7974 97.2162 22.6199 97.1047C22.4445 96.9933 22.2433 96.9376 22.0163 96.9376ZM27.6687 102.522C27.256 102.522 26.8866 102.444 26.5605 102.29C26.2344 102.133 25.9755 101.918 25.7835 101.646C25.5937 101.373 25.4926 101.062 25.4802 100.711H26.5946C26.6152 100.971 26.7277 101.184 26.932 101.349C27.1363 101.512 27.3818 101.593 27.6687 101.593C27.8936 101.593 28.0938 101.542 28.2692 101.438C28.4446 101.335 28.5829 101.192 28.684 101.008C28.7851 100.824 28.8347 100.615 28.8326 100.38C28.8347 100.14 28.7841 99.9278 28.6809 99.7421C28.5777 99.5564 28.4364 99.4109 28.2568 99.3056C28.0773 99.1983 27.8709 99.1447 27.6377 99.1447C27.4479 99.1426 27.2611 99.1777 27.0775 99.2499C26.8938 99.3221 26.7483 99.4171 26.641 99.5347L25.604 99.3644L25.9352 96.0956H29.6127V97.0552H26.8855L26.7029 98.7361H26.74C26.8577 98.5978 27.0238 98.4833 27.2384 98.3925C27.453 98.2996 27.6883 98.2532 27.9442 98.2532C28.328 98.2532 28.6706 98.344 28.9719 98.5256C29.2732 98.7051 29.5105 98.9527 29.6839 99.2685C29.8572 99.5842 29.9439 99.9454 29.9439 100.352C29.9439 100.771 29.8469 101.144 29.6529 101.472C29.461 101.799 29.1937 102.055 28.8512 102.243C28.5107 102.429 28.1165 102.522 27.6687 102.522ZM34.3704 101.247V100.912C34.3704 100.667 34.422 100.441 34.5252 100.234C34.6305 100.028 34.7832 99.8618 34.9834 99.7359C35.1835 99.61 35.426 99.5471 35.7108 99.5471C36.0038 99.5471 36.2494 99.61 36.4475 99.7359C36.6456 99.8597 36.7953 100.025 36.8964 100.231C36.9996 100.438 37.0512 100.665 37.0512 100.912V101.247C37.0512 101.492 36.9996 101.718 36.8964 101.924C36.7932 102.131 36.6415 102.297 36.4413 102.423C36.2432 102.549 35.9997 102.612 35.7108 102.612C35.4219 102.612 35.1773 102.549 34.9772 102.423C34.777 102.297 34.6253 102.131 34.5221 101.924C34.421 101.718 34.3704 101.492 34.3704 101.247ZM35.1784 100.912V101.247C35.1784 101.41 35.2176 101.559 35.296 101.695C35.3744 101.832 35.5127 101.9 35.7108 101.9C35.911 101.9 36.0482 101.833 36.1225 101.698C36.1989 101.562 36.237 101.412 36.237 101.247V100.912C36.237 100.747 36.2009 100.596 36.1287 100.46C36.0565 100.322 35.9172 100.253 35.7108 100.253C35.5168 100.253 35.3796 100.322 35.2991 100.46C35.2186 100.596 35.1784 100.747 35.1784 100.912ZM31.148 97.6186V97.2843C31.148 97.0366 31.2007 96.8096 31.3059 96.6033C31.4112 96.3969 31.5639 96.2318 31.764 96.108C31.9642 95.9821 32.2067 95.9192 32.4915 95.9192C32.7825 95.9192 33.027 95.9821 33.2251 96.108C33.4253 96.2318 33.5759 96.3969 33.6771 96.6033C33.7782 96.8096 33.8287 97.0366 33.8287 97.2843V97.6186C33.8287 97.8662 33.7771 98.0932 33.674 98.2996C33.5728 98.5039 33.4222 98.668 33.222 98.7918C33.0218 98.9156 32.7783 98.9775 32.4915 98.9775C32.2005 98.9775 31.9549 98.9156 31.7548 98.7918C31.5566 98.668 31.406 98.5029 31.3028 98.2965C31.1996 98.0901 31.148 97.8642 31.148 97.6186ZM31.9622 97.2843V97.6186C31.9622 97.7837 32.0003 97.9343 32.0767 98.0705C32.1551 98.2047 32.2934 98.2717 32.4915 98.2717C32.6896 98.2717 32.8258 98.2047 32.9001 98.0705C32.9764 97.9343 33.0146 97.7837 33.0146 97.6186V97.2843C33.0146 97.1192 32.9785 96.9685 32.9063 96.8323C32.834 96.6941 32.6958 96.6249 32.4915 96.6249C32.2954 96.6249 32.1582 96.6941 32.0798 96.8323C32.0014 96.9706 31.9622 97.1212 31.9622 97.2843ZM31.5009 102.435L35.8594 96.0956H36.6333L32.2748 102.435H31.5009Z" fill="black"/>
<path d="M21.7153 126.97C22.0186 126.973 22.3137 127.026 22.6006 127.131C22.8895 127.235 23.1495 127.404 23.3807 127.639C23.6118 127.872 23.7955 128.185 23.9317 128.577C24.0679 128.969 24.136 129.454 24.136 130.032C24.138 130.577 24.0802 131.064 23.9626 131.493C23.847 131.92 23.6809 132.281 23.4642 132.576C23.2476 132.872 22.9865 133.096 22.6811 133.251C22.3757 133.406 22.0321 133.483 21.6503 133.483C21.2499 133.483 20.895 133.405 20.5854 133.248C20.2779 133.091 20.0293 132.877 19.8394 132.604C19.6496 132.332 19.533 132.02 19.4896 131.669H20.6195C20.6773 131.921 20.7949 132.121 20.9724 132.27C21.1519 132.416 21.3779 132.49 21.6503 132.49C22.0898 132.49 22.4283 132.299 22.6656 131.917C22.9029 131.535 23.0216 131.005 23.0216 130.326H22.9782C22.8771 130.508 22.7461 130.664 22.5851 130.797C22.4242 130.927 22.2415 131.027 22.0372 131.097C21.835 131.167 21.6204 131.202 21.3933 131.202C21.0219 131.202 20.6876 131.113 20.3904 130.936C20.0953 130.758 19.8611 130.515 19.6877 130.205C19.5164 129.896 19.4298 129.542 19.4277 129.144C19.4277 128.731 19.5226 128.36 19.7125 128.032C19.9044 127.702 20.1717 127.442 20.5142 127.252C20.8568 127.06 21.2571 126.966 21.7153 126.97ZM21.7184 127.899C21.4955 127.899 21.2943 127.954 21.1148 128.063C20.9373 128.17 20.797 128.317 20.6938 128.503C20.5926 128.686 20.5421 128.892 20.5421 129.119C20.5442 129.344 20.5947 129.548 20.6938 129.732C20.7949 129.915 20.9321 130.061 21.1055 130.168C21.2809 130.275 21.4811 130.329 21.706 130.329C21.8732 130.329 22.029 130.297 22.1734 130.233C22.3179 130.169 22.4438 130.08 22.5511 129.967C22.6604 129.851 22.7451 129.72 22.8049 129.574C22.8668 129.427 22.8967 129.272 22.8947 129.109C22.8947 128.893 22.8431 128.693 22.7399 128.509C22.6388 128.325 22.4995 128.178 22.322 128.066C22.1466 127.955 21.9454 127.899 21.7184 127.899ZM27.5101 133.517C27.0003 133.517 26.5628 133.388 26.1976 133.131C25.8344 132.87 25.5547 132.496 25.3587 132.007C25.1647 131.516 25.0677 130.924 25.0677 130.233C25.0698 129.542 25.1678 128.954 25.3618 128.469C25.5578 127.982 25.8375 127.61 26.2007 127.354C26.5659 127.098 27.0024 126.97 27.5101 126.97C28.0177 126.97 28.4542 127.098 28.8195 127.354C29.1847 127.61 29.4643 127.982 29.6583 128.469C29.8544 128.956 29.9524 129.544 29.9524 130.233C29.9524 130.927 29.8544 131.519 29.6583 132.01C29.4643 132.499 29.1847 132.873 28.8195 133.131C28.4562 133.388 28.0198 133.517 27.5101 133.517ZM27.5101 132.549C27.9063 132.549 28.2189 132.354 28.448 131.964C28.6791 131.571 28.7947 130.995 28.7947 130.233C28.7947 129.73 28.7421 129.307 28.6368 128.964C28.5316 128.621 28.383 128.363 28.1911 128.19C27.9991 128.015 27.7721 127.927 27.5101 127.927C27.1159 127.927 26.8043 128.123 26.5752 128.515C26.3461 128.905 26.2306 129.478 26.2285 130.233C26.2265 130.739 26.277 131.164 26.3802 131.508C26.4854 131.853 26.634 132.113 26.826 132.289C27.0179 132.462 27.2459 132.549 27.5101 132.549ZM34.3705 132.208V131.874C34.3705 131.628 34.4221 131.402 34.5252 131.196C34.6305 130.989 34.7832 130.823 34.9834 130.697C35.1835 130.572 35.426 130.509 35.7108 130.509C36.0039 130.509 36.2494 130.572 36.4475 130.697C36.6457 130.821 36.7953 130.986 36.8964 131.193C36.9996 131.399 37.0512 131.626 37.0512 131.874V132.208C37.0512 132.454 36.9996 132.68 36.8964 132.886C36.7932 133.092 36.6415 133.258 36.4413 133.384C36.2432 133.51 35.9997 133.573 35.7108 133.573C35.4219 133.573 35.1774 133.51 34.9772 133.384C34.777 133.258 34.6253 133.092 34.5221 132.886C34.421 132.68 34.3705 132.454 34.3705 132.208ZM35.1784 131.874V132.208C35.1784 132.371 35.2176 132.521 35.296 132.657C35.3744 132.793 35.5127 132.861 35.7108 132.861C35.911 132.861 36.0482 132.794 36.1225 132.66C36.1989 132.524 36.237 132.373 36.237 132.208V131.874C36.237 131.709 36.2009 131.558 36.1287 131.422C36.0565 131.284 35.9172 131.214 35.7108 131.214C35.5168 131.214 35.3796 131.284 35.2991 131.422C35.2186 131.558 35.1784 131.709 35.1784 131.874ZM31.148 128.58V128.246C31.148 127.998 31.2007 127.771 31.3059 127.565C31.4112 127.358 31.5639 127.193 31.764 127.07C31.9642 126.944 32.2067 126.881 32.4915 126.881C32.7825 126.881 33.027 126.944 33.2251 127.07C33.4253 127.193 33.5759 127.358 33.6771 127.565C33.7782 127.771 33.8287 127.998 33.8287 128.246V128.58C33.8287 128.828 33.7772 129.055 33.674 129.261C33.5729 129.465 33.4222 129.63 33.222 129.753C33.0219 129.877 32.7783 129.939 32.4915 129.939C32.2005 129.939 31.9549 129.877 31.7548 129.753C31.5566 129.63 31.406 129.464 31.3028 129.258C31.1996 129.052 31.148 128.826 31.148 128.58ZM31.9622 128.246V128.58C31.9622 128.745 32.0003 128.896 32.0767 129.032C32.1551 129.166 32.2934 129.233 32.4915 129.233C32.6896 129.233 32.8258 129.166 32.9001 129.032C32.9765 128.896 33.0146 128.745 33.0146 128.58V128.246C33.0146 128.081 32.9785 127.93 32.9063 127.794C32.8341 127.656 32.6958 127.586 32.4915 127.586C32.2954 127.586 32.1582 127.656 32.0798 127.794C32.0014 127.932 31.9622 128.083 31.9622 128.246ZM31.5009 133.397L35.8594 127.057H36.6333L32.2748 133.397H31.5009Z" fill="black"/>
<path d="M22.0914 165.133C21.6312 165.133 21.2226 165.056 20.8656 164.901C20.5106 164.746 20.232 164.535 20.0298 164.266C19.8296 163.996 19.7306 163.69 19.7326 163.347C19.7306 163.081 19.7883 162.836 19.906 162.613C20.0236 162.39 20.1825 162.205 20.3827 162.056C20.5849 161.905 20.8098 161.81 21.0575 161.768V161.725C20.7314 161.653 20.4673 161.487 20.265 161.227C20.0649 160.964 19.9658 160.662 19.9679 160.32C19.9658 159.993 20.0566 159.703 20.2403 159.447C20.4239 159.191 20.6757 158.99 20.9956 158.843C21.3154 158.694 21.6807 158.62 22.0914 158.62C22.4979 158.62 22.8601 158.694 23.1779 158.843C23.4978 158.99 23.7495 159.191 23.9332 159.447C24.1189 159.703 24.2118 159.993 24.2118 160.32C24.2118 160.662 24.1097 160.964 23.9053 161.227C23.7031 161.487 23.4421 161.653 23.1222 161.725V161.768C23.3698 161.81 23.5927 161.905 23.7908 162.056C23.991 162.205 24.1499 162.39 24.2675 162.613C24.3872 162.836 24.4471 163.081 24.4471 163.347C24.4471 163.69 24.3459 163.996 24.1437 164.266C23.9415 164.535 23.6629 164.746 23.3079 164.901C22.955 165.056 22.5495 165.133 22.0914 165.133ZM22.0914 164.248C22.3287 164.248 22.5351 164.208 22.7105 164.127C22.8859 164.044 23.0221 163.929 23.1191 163.78C23.2161 163.632 23.2656 163.46 23.2677 163.266C23.2656 163.064 23.213 162.886 23.1098 162.731C23.0087 162.574 22.8694 162.451 22.6919 162.363C22.5165 162.274 22.3163 162.229 22.0914 162.229C21.8644 162.229 21.6621 162.274 21.4847 162.363C21.3072 162.451 21.1669 162.574 21.0637 162.731C20.9626 162.886 20.913 163.064 20.9151 163.266C20.913 163.46 20.9605 163.632 21.0575 163.78C21.1545 163.927 21.2907 164.041 21.4661 164.124C21.6436 164.206 21.852 164.248 22.0914 164.248ZM22.0914 161.36C22.2854 161.36 22.4567 161.32 22.6052 161.242C22.7559 161.164 22.8745 161.054 22.9612 160.914C23.0479 160.774 23.0923 160.612 23.0943 160.428C23.0923 160.246 23.0489 160.087 22.9643 159.951C22.8797 159.813 22.7621 159.707 22.6114 159.632C22.4608 159.556 22.2874 159.518 22.0914 159.518C21.8912 159.518 21.7148 159.556 21.5621 159.632C21.4114 159.707 21.2938 159.813 21.2092 159.951C21.1266 160.087 21.0864 160.246 21.0884 160.428C21.0864 160.612 21.1277 160.774 21.2123 160.914C21.2989 161.052 21.4176 161.162 21.5682 161.242C21.721 161.32 21.8953 161.36 22.0914 161.36ZM27.6687 165.133C27.256 165.133 26.8866 165.056 26.5605 164.901C26.2345 164.744 25.9755 164.529 25.7835 164.257C25.5937 163.985 25.4926 163.673 25.4802 163.322H26.5946C26.6152 163.582 26.7277 163.795 26.932 163.96C27.1363 164.123 27.3819 164.204 27.6687 164.204C27.8936 164.204 28.0938 164.153 28.2692 164.05C28.4446 163.946 28.5829 163.803 28.684 163.619C28.7851 163.436 28.8347 163.226 28.8326 162.991C28.8347 162.752 28.7841 162.539 28.6809 162.353C28.5777 162.168 28.4364 162.022 28.2568 161.917C28.0773 161.81 27.8709 161.756 27.6377 161.756C27.4479 161.754 27.2611 161.789 27.0775 161.861C26.8938 161.933 26.7483 162.028 26.641 162.146L25.604 161.976L25.9352 158.707H29.6127V159.666H26.8855L26.7029 161.347H26.7401C26.8577 161.209 27.0238 161.094 27.2384 161.004C27.453 160.911 27.6883 160.864 27.9442 160.864C28.328 160.864 28.6706 160.955 28.9719 161.137C29.2732 161.316 29.5105 161.564 29.6839 161.88C29.8572 162.195 29.9439 162.557 29.9439 162.963C29.9439 163.382 29.8469 163.756 29.6529 164.084C29.461 164.41 29.1938 164.667 28.8512 164.854C28.5107 165.04 28.1165 165.133 27.6687 165.133ZM34.3705 163.858V163.523C34.3705 163.278 34.4221 163.052 34.5252 162.845C34.6305 162.639 34.7832 162.473 34.9834 162.347C35.1835 162.221 35.426 162.158 35.7108 162.158C36.0039 162.158 36.2494 162.221 36.4475 162.347C36.6457 162.471 36.7953 162.636 36.8964 162.842C36.9996 163.049 37.0512 163.276 37.0512 163.523V163.858C37.0512 164.103 36.9996 164.329 36.8964 164.536C36.7932 164.742 36.6415 164.908 36.4414 165.034C36.2432 165.16 35.9997 165.223 35.7108 165.223C35.4219 165.223 35.1774 165.16 34.9772 165.034C34.777 164.908 34.6253 164.742 34.5221 164.536C34.421 164.329 34.3705 164.103 34.3705 163.858ZM35.1784 163.523V163.858C35.1784 164.021 35.2176 164.17 35.296 164.307C35.3744 164.443 35.5127 164.511 35.7108 164.511C35.911 164.511 36.0482 164.444 36.1225 164.31C36.1989 164.173 36.237 164.023 36.237 163.858V163.523C36.237 163.358 36.2009 163.208 36.1287 163.071C36.0565 162.933 35.9172 162.864 35.7108 162.864C35.5168 162.864 35.3796 162.933 35.2991 163.071C35.2186 163.208 35.1784 163.358 35.1784 163.523ZM31.148 160.23V159.895C31.148 159.648 31.2007 159.421 31.3059 159.214C31.4112 159.008 31.5639 158.843 31.764 158.719C31.9642 158.593 32.2067 158.53 32.4915 158.53C32.7825 158.53 33.027 158.593 33.2251 158.719C33.4253 158.843 33.5759 159.008 33.6771 159.214C33.7782 159.421 33.8287 159.648 33.8287 159.895V160.23C33.8287 160.477 33.7772 160.704 33.674 160.911C33.5729 161.115 33.4222 161.279 33.222 161.403C33.0219 161.527 32.7783 161.589 32.4915 161.589C32.2005 161.589 31.9549 161.527 31.7548 161.403C31.5567 161.279 31.406 161.114 31.3028 160.908C31.1996 160.701 31.148 160.475 31.148 160.23ZM31.9622 159.895V160.23C31.9622 160.395 32.0003 160.546 32.0767 160.682C32.1551 160.816 32.2934 160.883 32.4915 160.883C32.6896 160.883 32.8258 160.816 32.9001 160.682C32.9765 160.546 33.0146 160.395 33.0146 160.23V159.895C33.0146 159.73 32.9785 159.58 32.9063 159.444C32.8341 159.305 32.6958 159.236 32.4915 159.236C32.2954 159.236 32.1582 159.305 32.0798 159.444C32.0014 159.582 31.9622 159.732 31.9622 159.895ZM31.5009 165.046L35.8594 158.707H36.6333L32.2748 165.046H31.5009Z" fill="black"/>
<path d="M20.8771 196.607C20.4169 196.607 20.0083 196.53 19.6513 196.375C19.2963 196.22 19.0177 196.008 18.8155 195.74C18.6153 195.47 18.5163 195.163 18.5183 194.821C18.5163 194.555 18.574 194.31 18.6917 194.087C18.8093 193.864 18.9682 193.679 19.1684 193.53C19.3706 193.379 19.5956 193.283 19.8432 193.242V193.199C19.5171 193.127 19.253 192.96 19.0508 192.7C18.8506 192.438 18.7515 192.136 18.7536 191.793C18.7515 191.467 18.8423 191.176 19.026 190.921C19.2097 190.665 19.4614 190.463 19.7813 190.317C20.1012 190.168 20.4664 190.094 20.8771 190.094C21.2836 190.094 21.6458 190.168 21.9636 190.317C22.2835 190.463 22.5353 190.665 22.7189 190.921C22.9047 191.176 22.9975 191.467 22.9975 191.793C22.9975 192.136 22.8954 192.438 22.6911 192.7C22.4888 192.96 22.2278 193.127 21.9079 193.199V193.242C22.1555 193.283 22.3784 193.379 22.5765 193.53C22.7767 193.679 22.9356 193.864 23.0532 194.087C23.1729 194.31 23.2328 194.555 23.2328 194.821C23.2328 195.163 23.1317 195.47 22.9294 195.74C22.7272 196.008 22.4486 196.22 22.0936 196.375C21.7407 196.53 21.3352 196.607 20.8771 196.607ZM20.8771 195.722C21.1144 195.722 21.3208 195.681 21.4962 195.601C21.6716 195.518 21.8078 195.403 21.9048 195.254C22.0018 195.106 22.0513 194.934 22.0534 194.74C22.0513 194.538 21.9987 194.36 21.8955 194.205C21.7944 194.048 21.6551 193.925 21.4776 193.836C21.3022 193.748 21.102 193.703 20.8771 193.703C20.6501 193.703 20.4479 193.748 20.2704 193.836C20.0929 193.925 19.9526 194.048 19.8494 194.205C19.7483 194.36 19.6987 194.538 19.7008 194.74C19.6987 194.934 19.7462 195.106 19.8432 195.254C19.9402 195.401 20.0764 195.515 20.2518 195.598C20.4293 195.68 20.6377 195.722 20.8771 195.722ZM20.8771 192.834C21.0711 192.834 21.2424 192.794 21.391 192.716C21.5416 192.637 21.6603 192.528 21.7469 192.388C21.8336 192.247 21.878 192.085 21.88 191.902C21.878 191.72 21.8346 191.561 21.75 191.425C21.6654 191.287 21.5478 191.181 21.3971 191.106C21.2465 191.03 21.0731 190.992 20.8771 190.992C20.6769 190.992 20.5005 191.03 20.3478 191.106C20.1971 191.181 20.0795 191.287 19.9949 191.425C19.9123 191.561 19.8721 191.72 19.8742 191.902C19.8721 192.085 19.9134 192.247 19.998 192.388C20.0847 192.526 20.2033 192.635 20.354 192.716C20.5067 192.794 20.6811 192.834 20.8771 192.834ZM26.5937 196.641C26.084 196.641 25.6465 196.512 25.2812 196.254C24.918 195.994 24.6384 195.619 24.4423 195.13C24.2484 194.639 24.1514 194.048 24.1514 193.357C24.1534 192.665 24.2515 192.077 24.4454 191.592C24.6415 191.105 24.9211 190.734 25.2843 190.478C25.6496 190.222 26.0861 190.094 26.5937 190.094C27.1014 190.094 27.5378 190.222 27.9031 190.478C28.2684 190.734 28.548 191.105 28.742 191.592C28.938 192.079 29.0361 192.667 29.0361 193.357C29.0361 194.05 28.938 194.642 28.742 195.133C28.548 195.623 28.2684 195.996 27.9031 196.254C27.5399 196.512 27.1034 196.641 26.5937 196.641ZM26.5937 195.672C26.9899 195.672 27.3026 195.477 27.5317 195.087C27.7628 194.695 27.8783 194.118 27.8783 193.357C27.8783 192.853 27.8257 192.43 27.7205 192.088C27.6152 191.745 27.4666 191.487 27.2747 191.314C27.0828 191.138 26.8558 191.051 26.5937 191.051C26.1996 191.051 25.8879 191.247 25.6589 191.639C25.4298 192.029 25.3142 192.601 25.3122 193.357C25.3101 193.862 25.3607 194.287 25.4639 194.632C25.5691 194.977 25.7177 195.237 25.9096 195.412C26.1015 195.585 26.3296 195.672 26.5937 195.672ZM33.4541 195.332V194.997C33.4541 194.752 33.5057 194.526 33.6089 194.319C33.7141 194.113 33.8669 193.947 34.067 193.821C34.2672 193.695 34.5097 193.632 34.7945 193.632C35.0875 193.632 35.3331 193.695 35.5312 193.821C35.7293 193.945 35.8789 194.11 35.98 194.316C36.0832 194.523 36.1348 194.75 36.1348 194.997V195.332C36.1348 195.577 36.0832 195.803 35.98 196.01C35.8769 196.216 35.7252 196.382 35.525 196.508C35.3269 196.634 35.0834 196.697 34.7945 196.697C34.5056 196.697 34.261 196.634 34.0608 196.508C33.8607 196.382 33.709 196.216 33.6058 196.01C33.5047 195.803 33.4541 195.577 33.4541 195.332ZM34.262 194.997V195.332C34.262 195.495 34.3013 195.644 34.3797 195.78C34.4581 195.917 34.5964 195.985 34.7945 195.985C34.9946 195.985 35.1319 195.918 35.2062 195.784C35.2825 195.647 35.3207 195.497 35.3207 195.332V194.997C35.3207 194.832 35.2846 194.682 35.2124 194.545C35.1401 194.407 35.0008 194.338 34.7945 194.338C34.6005 194.338 34.4632 194.407 34.3828 194.545C34.3023 194.682 34.262 194.832 34.262 194.997ZM30.2317 191.704V191.369C30.2317 191.122 30.2843 190.895 30.3896 190.688C30.4948 190.482 30.6475 190.317 30.8477 190.193C31.0479 190.067 31.2904 190.004 31.5751 190.004C31.8661 190.004 32.1107 190.067 32.3088 190.193C32.509 190.317 32.6596 190.482 32.7607 190.688C32.8618 190.895 32.9124 191.122 32.9124 191.369V191.704C32.9124 191.951 32.8608 192.178 32.7576 192.385C32.6565 192.589 32.5059 192.753 32.3057 192.877C32.1055 193.001 31.862 193.063 31.5751 193.063C31.2842 193.063 31.0386 193.001 30.8384 192.877C30.6403 192.753 30.4897 192.588 30.3865 192.382C30.2833 192.175 30.2317 191.949 30.2317 191.704ZM31.0458 191.369V191.704C31.0458 191.869 31.084 192.019 31.1604 192.156C31.2388 192.29 31.377 192.357 31.5751 192.357C31.7733 192.357 31.9095 192.29 31.9838 192.156C32.0601 192.019 32.0983 191.869 32.0983 191.704V191.369C32.0983 191.204 32.0622 191.054 31.9899 190.917C31.9177 190.779 31.7795 190.71 31.5751 190.71C31.3791 190.71 31.2419 190.779 31.1634 190.917C31.085 191.056 31.0458 191.206 31.0458 191.369ZM30.5846 196.52L34.9431 190.181H35.7169L31.3585 196.52H30.5846Z" fill="black"/>
</g>
<path d="M25.5992 18.4193H24.2118C24.1584 18.1229 24.0591 17.862 23.9138 17.6367C23.7686 17.4114 23.5907 17.2202 23.3802 17.063C23.1697 16.9059 22.934 16.7873 22.6732 16.7073C22.4152 16.6273 22.141 16.5872 21.8505 16.5872C21.3258 16.5872 20.8559 16.7192 20.4409 16.983C20.0288 17.2469 19.7027 17.6337 19.4626 18.1436C19.2254 18.6535 19.1068 19.2761 19.1068 20.0113C19.1068 20.7524 19.2254 21.3779 19.4626 21.8878C19.7027 22.3977 20.0303 22.7831 20.4453 23.044C20.8603 23.3049 21.3273 23.4353 21.8461 23.4353C22.1336 23.4353 22.4064 23.3968 22.6643 23.3197C22.9251 23.2397 23.1608 23.1226 23.3713 22.9684C23.5818 22.8143 23.7597 22.626 23.9049 22.4037C24.0532 22.1784 24.1554 21.9204 24.2118 21.6299L25.5992 21.6344C25.5251 22.082 25.3813 22.4941 25.1678 22.8706C24.9573 23.2441 24.6861 23.5673 24.3541 23.84C24.025 24.1098 23.6485 24.3188 23.2246 24.467C22.8006 24.6152 22.3382 24.6893 21.8372 24.6893C21.0486 24.6893 20.346 24.5026 19.7294 24.129C19.1128 23.7525 18.6266 23.2145 18.2708 22.5148C17.918 21.8152 17.7416 20.9807 17.7416 20.0113C17.7416 19.0389 17.9195 18.2044 18.2753 17.5077C18.631 16.8081 19.1172 16.2715 19.7338 15.898C20.3504 15.5215 21.0516 15.3332 21.8372 15.3332C22.3204 15.3332 22.771 15.4029 23.189 15.5422C23.61 15.6786 23.9879 15.8802 24.3229 16.147C24.6579 16.4108 24.9351 16.734 25.1545 17.1164C25.3739 17.4959 25.5221 17.9302 25.5992 18.4193ZM31.3257 21.7322V17.7345H32.6597V24.5648H31.3523V23.382H31.2812C31.1241 23.7466 30.8721 24.0505 30.5252 24.2936C30.1813 24.5337 29.753 24.6538 29.2401 24.6538C28.8013 24.6538 28.413 24.5574 28.075 24.3647C27.74 24.1691 27.4762 23.88 27.2835 23.4976C27.0938 23.1152 26.9989 22.6423 26.9989 22.0791V17.7345H28.3285V21.919C28.3285 22.3844 28.4575 22.755 28.7154 23.0307C28.9733 23.3064 29.3083 23.4442 29.7204 23.4442C29.9694 23.4442 30.2169 23.382 30.463 23.2575C30.712 23.1329 30.918 22.9447 31.0811 22.6927C31.2471 22.4407 31.3286 22.1206 31.3257 21.7322ZM39.4267 19.4021L38.2217 19.6155C38.1713 19.4614 38.0912 19.3146 37.9815 19.1753C37.8748 19.036 37.7295 18.9218 37.5457 18.8329C37.3619 18.7439 37.1322 18.6995 36.8565 18.6995C36.48 18.6995 36.1657 18.784 35.9138 18.9529C35.6618 19.119 35.5358 19.3339 35.5358 19.5977C35.5358 19.826 35.6203 20.0098 35.7892 20.1491C35.9582 20.2885 36.231 20.4026 36.6075 20.4915L37.6925 20.7406C38.321 20.8858 38.7894 21.1096 39.0977 21.412C39.406 21.7144 39.5601 22.1072 39.5601 22.5904C39.5601 22.9995 39.4416 23.3642 39.2044 23.6844C38.9702 24.0016 38.6426 24.2506 38.2217 24.4314C37.8037 24.6123 37.319 24.7027 36.7675 24.7027C36.0027 24.7027 35.3787 24.5396 34.8954 24.2135C34.4122 23.8845 34.1158 23.4175 34.0061 22.8128L35.2912 22.6171C35.3712 22.9521 35.5358 23.2056 35.7848 23.3775C36.0338 23.5465 36.3584 23.631 36.7587 23.631C37.1944 23.631 37.5428 23.5406 37.8037 23.3597C38.0645 23.1759 38.195 22.9521 38.195 22.6883C38.195 22.4748 38.1149 22.2955 37.9548 22.1502C37.7977 22.0049 37.5561 21.8953 37.23 21.8211L36.0738 21.5677C35.4365 21.4224 34.9651 21.1912 34.6598 20.874C34.3574 20.5568 34.2062 20.1551 34.2062 19.6689C34.2062 19.2657 34.3188 18.9129 34.5441 18.6105C34.7694 18.3082 35.0807 18.0725 35.478 17.9035C35.8752 17.7316 36.3303 17.6456 36.8431 17.6456C37.5813 17.6456 38.1624 17.8057 38.5863 18.1258C39.0102 18.443 39.2904 18.8685 39.4267 19.4021ZM44.0727 17.7345V18.8018H40.3418V17.7345H44.0727ZM41.3423 16.0981H42.6719V22.5593C42.6719 22.8172 42.7104 23.0114 42.7875 23.1418C42.8646 23.2693 42.9639 23.3568 43.0855 23.4042C43.21 23.4487 43.3449 23.4709 43.4901 23.4709C43.5968 23.4709 43.6902 23.4635 43.7703 23.4487C43.8503 23.4338 43.9126 23.422 43.957 23.4131L44.1972 24.5115C44.1201 24.5411 44.0104 24.5707 43.8681 24.6004C43.7258 24.633 43.5479 24.6508 43.3345 24.6538C42.9847 24.6597 42.6586 24.5974 42.3562 24.467C42.0538 24.3365 41.8092 24.135 41.6225 23.8622C41.4357 23.5895 41.3423 23.2471 41.3423 22.835V16.0981ZM48.2094 24.7027C47.5691 24.7027 47.0102 24.5559 46.533 24.2624C46.0557 23.9689 45.6851 23.5584 45.4213 23.0307C45.1574 22.503 45.0255 21.8864 45.0255 21.1808C45.0255 20.4723 45.1574 19.8527 45.4213 19.322C45.6851 18.7914 46.0557 18.3793 46.533 18.0858C47.0102 17.7923 47.5691 17.6456 48.2094 17.6456C48.8497 17.6456 49.4086 17.7923 49.8859 18.0858C50.3631 18.3793 50.7337 18.7914 50.9976 19.322C51.2614 19.8527 51.3933 20.4723 51.3933 21.1808C51.3933 21.8864 51.2614 22.503 50.9976 23.0307C50.7337 23.5584 50.3631 23.9689 49.8859 24.2624C49.4086 24.5559 48.8497 24.7027 48.2094 24.7027ZM48.2139 23.5865C48.6289 23.5865 48.9728 23.4768 49.2455 23.2575C49.5182 23.0381 49.7198 22.7461 49.8503 22.3814C49.9837 22.0168 50.0504 21.6151 50.0504 21.1763C50.0504 20.7406 49.9837 20.3403 49.8503 19.9757C49.7198 19.6081 49.5182 19.3131 49.2455 19.0908C48.9728 18.8685 48.6289 18.7573 48.2139 18.7573C47.7959 18.7573 47.449 18.8685 47.1733 19.0908C46.9006 19.3131 46.6975 19.6081 46.5641 19.9757C46.4336 20.3403 46.3684 20.7406 46.3684 21.1763C46.3684 21.6151 46.4336 22.0168 46.5641 22.3814C46.6975 22.7461 46.9006 23.0381 47.1733 23.2575C47.449 23.4768 47.7959 23.5865 48.2139 23.5865ZM52.7397 24.5648V17.7345H54.0159V18.8462H54.1004C54.2427 18.4697 54.4754 18.1762 54.7986 17.9658C55.1217 17.7523 55.5086 17.6456 55.9592 17.6456C56.4157 17.6456 56.7982 17.7523 57.1065 17.9658C57.4177 18.1792 57.6475 18.4727 57.7957 18.8462H57.8669C58.0299 18.4816 58.2893 18.1911 58.6451 17.9746C59.0008 17.7553 59.4247 17.6456 59.9169 17.6456C60.5364 17.6456 61.0419 17.8398 61.4332 18.2281C61.8275 18.6165 62.0246 19.202 62.0246 19.9846V24.5648H60.695V20.1091C60.695 19.6466 60.5691 19.3117 60.3171 19.1041C60.0651 18.8966 59.7642 18.7929 59.4144 18.7929C58.9815 18.7929 58.6451 18.9263 58.4049 19.1931C58.1648 19.4569 58.0447 19.7964 58.0447 20.2114V24.5648H56.7196V20.0246C56.7196 19.6541 56.604 19.3561 56.3727 19.1308C56.1415 18.9055 55.8406 18.7929 55.47 18.7929C55.2181 18.7929 54.9853 18.8596 54.7719 18.993C54.5614 19.1234 54.3909 19.3057 54.2605 19.5399C54.133 19.7741 54.0693 20.0454 54.0693 20.3537V24.5648H52.7397ZM66.6127 24.7027C65.9398 24.7027 65.3602 24.5589 64.874 24.2713C64.3908 23.9808 64.0173 23.5732 63.7534 23.0485C63.4926 22.5208 63.3621 21.9027 63.3621 21.1941C63.3621 20.4945 63.4926 19.8779 63.7534 19.3443C64.0173 18.8106 64.3849 18.3941 64.8563 18.0947C65.3306 17.7953 65.8849 17.6456 66.5194 17.6456C66.9048 17.6456 67.2783 17.7093 67.64 17.8368C68.0016 17.9643 68.3262 18.1644 68.6138 18.4371C68.9014 18.7099 69.1282 19.0641 69.2942 19.4999C69.4602 19.9327 69.5432 20.4589 69.5432 21.0785V21.5499H64.1136V20.5538H68.2403C68.2403 20.204 68.1691 19.8942 68.0268 19.6244C67.8845 19.3517 67.6844 19.1367 67.4265 18.9796C67.1716 18.8225 66.8721 18.7439 66.5283 18.7439C66.1547 18.7439 65.8286 18.8358 65.55 19.0196C65.2743 19.2005 65.0608 19.4376 64.9096 19.7311C64.7614 20.0217 64.6873 20.3374 64.6873 20.6783V21.4565C64.6873 21.913 64.7673 22.3014 64.9274 22.6216C65.0905 22.9417 65.3172 23.1863 65.6078 23.3553C65.8983 23.5213 66.2377 23.6043 66.6261 23.6043C66.8781 23.6043 67.1078 23.5687 67.3153 23.4976C67.5229 23.4235 67.7022 23.3138 67.8534 23.1685C68.0046 23.0233 68.1202 22.8439 68.2003 22.6305L69.4587 22.8572C69.3579 23.2278 69.1771 23.5524 68.9162 23.8311C68.6583 24.1068 68.3337 24.3217 67.9423 24.4759C67.554 24.6271 67.1108 24.7027 66.6127 24.7027ZM70.8807 24.5648V17.7345H72.1658V18.8195H72.237C72.3615 18.4519 72.5808 18.1629 72.8951 17.9524C73.2123 17.739 73.571 17.6322 73.9712 17.6322C74.0542 17.6322 74.152 17.6352 74.2647 17.6411C74.3803 17.6471 74.4707 17.6545 74.536 17.6634V18.9352C74.4826 18.9203 74.3877 18.904 74.2514 18.8862C74.115 18.8655 73.9786 18.8551 73.8423 18.8551C73.528 18.8551 73.2479 18.9218 73.0018 19.0552C72.7587 19.1857 72.566 19.368 72.4237 19.6022C72.2814 19.8334 72.2103 20.0973 72.2103 20.3937V24.5648H70.8807ZM83.7989 17.8501C83.7514 17.4292 83.5558 17.1031 83.2119 16.8718C82.868 16.6376 82.4352 16.5205 81.9134 16.5205C81.5399 16.5205 81.2168 16.5798 80.944 16.6984C80.6713 16.814 80.4593 16.9741 80.3081 17.1787C80.1599 17.3803 80.0858 17.61 80.0858 17.8679C80.0858 18.0843 80.1362 18.2711 80.237 18.4282C80.3407 18.5853 80.4756 18.7173 80.6416 18.824C80.8106 18.9277 80.9915 19.0152 81.1842 19.0863C81.3769 19.1545 81.5621 19.2109 81.74 19.2553L82.6294 19.4866C82.9199 19.5577 83.2178 19.6541 83.5232 19.7756C83.8285 19.8971 84.1116 20.0572 84.3725 20.2559C84.6334 20.4545 84.8439 20.7005 85.004 20.994C85.167 21.2875 85.2485 21.6388 85.2485 22.0479C85.2485 22.5638 85.1151 23.0218 84.8483 23.422C84.5845 23.8222 84.2006 24.1379 83.6966 24.3692C83.1956 24.6004 82.5893 24.716 81.8779 24.716C81.196 24.716 80.6061 24.6078 80.108 24.3914C79.61 24.175 79.2201 23.8682 78.9385 23.4709C78.6569 23.0707 78.5012 22.5964 78.4716 22.0479H79.8501C79.8768 22.377 79.9835 22.6512 80.1703 22.8706C80.36 23.087 80.6016 23.2486 80.8951 23.3553C81.1916 23.459 81.5162 23.5109 81.869 23.5109C82.2573 23.5109 82.6027 23.4502 82.9051 23.3286C83.2104 23.2041 83.4505 23.0322 83.6255 22.8128C83.8004 22.5904 83.8878 22.331 83.8878 22.0346C83.8878 21.7648 83.8107 21.544 83.6566 21.372C83.5054 21.2001 83.2994 21.0578 83.0385 20.9451C82.7806 20.8325 82.4886 20.7332 82.1625 20.6472L81.0863 20.3537C80.357 20.1551 79.779 19.8631 79.3521 19.4777C78.9281 19.0923 78.7162 18.5824 78.7162 17.948C78.7162 17.4232 78.8585 16.9652 79.1431 16.5739C79.4277 16.1826 79.8131 15.8787 80.2992 15.6623C80.7854 15.4429 81.3339 15.3332 81.9446 15.3332C82.5612 15.3332 83.1052 15.4414 83.5765 15.6579C84.0509 15.8743 84.4244 16.1722 84.6971 16.5517C84.9699 16.9282 85.1122 17.361 85.124 17.8501H83.7989ZM88.6338 24.716C88.201 24.716 87.8096 24.636 87.4598 24.4759C87.11 24.3128 86.8328 24.0772 86.6283 23.7688C86.4267 23.4605 86.3259 23.0825 86.3259 22.6349C86.3259 22.2495 86.4 21.9323 86.5482 21.6833C86.6965 21.4343 86.8966 21.2371 87.1485 21.0919C87.4005 20.9466 87.6822 20.8369 87.9934 20.7628C88.3047 20.6887 88.6219 20.6324 88.9451 20.5938C89.3542 20.5464 89.6862 20.5078 89.9411 20.4782C90.1961 20.4456 90.3814 20.3937 90.497 20.3226C90.6126 20.2514 90.6704 20.1358 90.6704 19.9757V19.9446C90.6704 19.5562 90.5607 19.2553 90.3414 19.0419C90.1249 18.8284 89.8018 18.7217 89.372 18.7217C88.9243 18.7217 88.5715 18.821 88.3136 19.0196C88.0587 19.2153 87.8823 19.4332 87.7844 19.6733L86.5349 19.3887C86.6831 18.9737 86.8995 18.6387 87.1841 18.3838C87.4717 18.1258 87.8022 17.9391 88.1758 17.8235C88.5493 17.7049 88.9421 17.6456 89.3542 17.6456C89.6269 17.6456 89.9159 17.6782 90.2213 17.7434C90.5296 17.8057 90.8172 17.9213 91.084 18.0903C91.3538 18.2592 91.5746 18.5009 91.7466 18.8151C91.9185 19.1264 92.0045 19.531 92.0045 20.0291V24.5648H90.706V23.631H90.6526C90.5667 23.8029 90.4377 23.9719 90.2658 24.1379C90.0938 24.3039 89.873 24.4418 89.6032 24.5515C89.3334 24.6612 89.0103 24.716 88.6338 24.716ZM88.9228 23.6488C89.2904 23.6488 89.6047 23.5761 89.8656 23.4309C90.1294 23.2856 90.3295 23.0959 90.4659 22.8617C90.6052 22.6245 90.6749 22.3711 90.6749 22.1013V21.2208C90.6274 21.2682 90.5355 21.3127 90.3992 21.3542C90.2658 21.3928 90.1131 21.4269 89.9411 21.4565C89.7692 21.4832 89.6017 21.5084 89.4387 21.5321C89.2756 21.5528 89.1392 21.5706 89.0296 21.5855C88.7716 21.6181 88.536 21.6729 88.3225 21.75C88.112 21.8271 87.943 21.9382 87.8156 22.0835C87.6911 22.2258 87.6288 22.4155 87.6288 22.6527C87.6288 22.9818 87.7504 23.2308 87.9934 23.3998C88.2365 23.5658 88.5463 23.6488 88.9228 23.6488ZM96.826 17.7345V18.8018H93.0952V17.7345H96.826ZM94.0957 16.0981H95.4253V22.5593C95.4253 22.8172 95.4638 23.0114 95.5409 23.1418C95.618 23.2693 95.7173 23.3568 95.8388 23.4042C95.9633 23.4487 96.0982 23.4709 96.2435 23.4709C96.3502 23.4709 96.4436 23.4635 96.5236 23.4487C96.6037 23.4338 96.6659 23.422 96.7104 23.4131L96.9505 24.5115C96.8735 24.5411 96.7638 24.5707 96.6215 24.6004C96.4792 24.633 96.3013 24.6508 96.0879 24.6538C95.738 24.6597 95.4119 24.5974 95.1096 24.467C94.8072 24.3365 94.5626 24.135 94.3758 23.8622C94.1891 23.5895 94.0957 23.2471 94.0957 22.835V16.0981ZM98.1591 24.5648V17.7345H99.4887V24.5648H98.1591ZM98.8305 16.6806C98.5993 16.6806 98.4007 16.6035 98.2347 16.4494C98.0716 16.2923 97.9901 16.1055 97.9901 15.8891C97.9901 15.6697 98.0716 15.4829 98.2347 15.3288C98.4007 15.1717 98.5993 15.0931 98.8305 15.0931C99.0618 15.0931 99.2589 15.1717 99.422 15.3288C99.588 15.4829 99.671 15.6697 99.671 15.8891C99.671 16.1055 99.588 16.2923 99.422 16.4494C99.2589 16.6035 99.0618 16.6806 98.8305 16.6806ZM106.258 19.4021L105.053 19.6155C105.002 19.4614 104.922 19.3146 104.813 19.1753C104.706 19.036 104.561 18.9218 104.377 18.8329C104.193 18.7439 103.963 18.6995 103.688 18.6995C103.311 18.6995 102.997 18.784 102.745 18.9529C102.493 19.119 102.367 19.3339 102.367 19.5977C102.367 19.826 102.451 20.0098 102.62 20.1491C102.789 20.2885 103.062 20.4026 103.439 20.4915L104.524 20.7406C105.152 20.8858 105.621 21.1096 105.929 21.412C106.237 21.7144 106.391 22.1072 106.391 22.5904C106.391 22.9995 106.273 23.3642 106.036 23.6844C105.801 24.0016 105.474 24.2506 105.053 24.4314C104.635 24.6123 104.15 24.7027 103.599 24.7027C102.834 24.7027 102.21 24.5396 101.727 24.2135C101.243 23.8845 100.947 23.4175 100.837 22.8128L102.122 22.6171C102.202 22.9521 102.367 23.2056 102.616 23.3775C102.865 23.5465 103.19 23.631 103.59 23.631C104.026 23.631 104.374 23.5406 104.635 23.3597C104.896 23.1759 105.026 22.9521 105.026 22.6883C105.026 22.4748 104.946 22.2955 104.786 22.1502C104.629 22.0049 104.387 21.8953 104.061 21.8211L102.905 21.5677C102.268 21.4224 101.796 21.1912 101.491 20.874C101.189 20.5568 101.037 20.1551 101.037 19.6689C101.037 19.2657 101.15 18.9129 101.375 18.6105C101.601 18.3082 101.912 18.0725 102.309 17.9035C102.706 17.7316 103.161 17.6456 103.674 17.6456C104.413 17.6456 104.994 17.8057 105.417 18.1258C105.841 18.443 106.122 18.8685 106.258 19.4021ZM110.966 17.7345V18.8018H107.106V17.7345H110.966ZM108.165 24.5648V16.943C108.165 16.5161 108.258 16.1618 108.445 15.8802C108.632 15.5956 108.879 15.3836 109.187 15.2443C109.496 15.102 109.831 15.0309 110.192 15.0309C110.459 15.0309 110.687 15.0531 110.877 15.0976C111.067 15.1391 111.208 15.1776 111.3 15.2132L110.988 16.2893C110.926 16.2715 110.846 16.2508 110.748 16.227C110.65 16.2004 110.532 16.187 110.392 16.187C110.069 16.187 109.838 16.2671 109.699 16.4272C109.562 16.5872 109.494 16.8185 109.494 17.1209V24.5648H108.165ZM113.98 24.716C113.547 24.716 113.156 24.636 112.806 24.4759C112.456 24.3128 112.179 24.0772 111.975 23.7688C111.773 23.4605 111.672 23.0825 111.672 22.6349C111.672 22.2495 111.746 21.9323 111.894 21.6833C112.043 21.4343 112.243 21.2371 112.495 21.0919C112.747 20.9466 113.028 20.8369 113.34 20.7628C113.651 20.6887 113.968 20.6324 114.291 20.5938C114.7 20.5464 115.032 20.5078 115.287 20.4782C115.542 20.4456 115.728 20.3937 115.843 20.3226C115.959 20.2514 116.017 20.1358 116.017 19.9757V19.9446C116.017 19.5562 115.907 19.2553 115.688 19.0419C115.471 18.8284 115.148 18.7217 114.718 18.7217C114.271 18.7217 113.918 18.821 113.66 19.0196C113.405 19.2153 113.229 19.4332 113.131 19.6733L111.881 19.3887C112.029 18.9737 112.246 18.6387 112.53 18.3838C112.818 18.1258 113.148 17.9391 113.522 17.8235C113.896 17.7049 114.288 17.6456 114.7 17.6456C114.973 17.6456 115.262 17.6782 115.568 17.7434C115.876 17.8057 116.163 17.9213 116.43 18.0903C116.7 18.2592 116.921 18.5009 117.093 18.8151C117.265 19.1264 117.351 19.531 117.351 20.0291V24.5648H116.052V23.631H115.999C115.913 23.8029 115.784 23.9719 115.612 24.1379C115.44 24.3039 115.219 24.4418 114.949 24.5515C114.68 24.6612 114.357 24.716 113.98 24.716ZM114.269 23.6488C114.637 23.6488 114.951 23.5761 115.212 23.4309C115.476 23.2856 115.676 23.0959 115.812 22.8617C115.951 22.6245 116.021 22.3711 116.021 22.1013V21.2208C115.974 21.2682 115.882 21.3127 115.745 21.3542C115.612 21.3928 115.459 21.4269 115.287 21.4565C115.115 21.4832 114.948 21.5084 114.785 21.5321C114.622 21.5528 114.485 21.5706 114.376 21.5855C114.118 21.6181 113.882 21.6729 113.669 21.75C113.458 21.8271 113.289 21.9382 113.162 22.0835C113.037 22.2258 112.975 22.4155 112.975 22.6527C112.975 22.9818 113.097 23.2308 113.34 23.3998C113.583 23.5658 113.893 23.6488 114.269 23.6488ZM121.861 24.7027C121.2 24.7027 120.631 24.553 120.153 24.2535C119.679 23.9512 119.314 23.5346 119.06 23.004C118.805 22.4733 118.677 21.8656 118.677 21.1808C118.677 20.4871 118.808 19.8749 119.068 19.3443C119.329 18.8106 119.697 18.3941 120.171 18.0947C120.646 17.7953 121.204 17.6456 121.848 17.6456C122.366 17.6456 122.829 17.7419 123.235 17.9346C123.641 18.1244 123.969 18.3912 124.218 18.735C124.47 19.0789 124.62 19.4806 124.667 19.9401H123.373C123.302 19.62 123.139 19.3443 122.884 19.113C122.632 18.8818 122.294 18.7662 121.87 18.7662C121.499 18.7662 121.175 18.864 120.896 19.0597C120.62 19.2524 120.405 19.5281 120.251 19.8868C120.097 20.2425 120.02 20.6635 120.02 21.1497C120.02 21.6477 120.096 22.0776 120.247 22.4392C120.398 22.8009 120.611 23.0811 120.887 23.2797C121.166 23.4783 121.493 23.5776 121.87 23.5776C122.122 23.5776 122.35 23.5317 122.555 23.4398C122.762 23.3449 122.936 23.21 123.075 23.0351C123.217 22.8602 123.317 22.6497 123.373 22.4037H124.667C124.62 22.8454 124.476 23.2397 124.236 23.5865C123.995 23.9334 123.674 24.2061 123.271 24.4047C122.87 24.6034 122.401 24.7027 121.861 24.7027ZM129.139 17.7345V18.8018H125.409V17.7345H129.139ZM126.409 16.0981H127.739V22.5593C127.739 22.8172 127.777 23.0114 127.854 23.1418C127.931 23.2693 128.031 23.3568 128.152 23.4042C128.277 23.4487 128.412 23.4709 128.557 23.4709C128.664 23.4709 128.757 23.4635 128.837 23.4487C128.917 23.4338 128.979 23.422 129.024 23.4131L129.264 24.5115C129.187 24.5411 129.077 24.5707 128.935 24.6004C128.793 24.633 128.615 24.6508 128.401 24.6538C128.051 24.6597 127.725 24.5974 127.423 24.467C127.121 24.3365 126.876 24.135 126.689 23.8622C126.502 23.5895 126.409 23.2471 126.409 22.835V16.0981ZM130.472 24.5648V17.7345H131.802V24.5648H130.472ZM131.144 16.6806C130.913 16.6806 130.714 16.6035 130.548 16.4494C130.385 16.2923 130.303 16.1055 130.303 15.8891C130.303 15.6697 130.385 15.4829 130.548 15.3288C130.714 15.1717 130.913 15.0931 131.144 15.0931C131.375 15.0931 131.572 15.1717 131.735 15.3288C131.901 15.4829 131.984 15.6697 131.984 15.8891C131.984 16.1055 131.901 16.2923 131.735 16.4494C131.572 16.6035 131.375 16.6806 131.144 16.6806ZM136.33 24.7027C135.69 24.7027 135.131 24.5559 134.654 24.2624C134.176 23.9689 133.806 23.5584 133.542 23.0307C133.278 22.503 133.146 21.8864 133.146 21.1808C133.146 20.4723 133.278 19.8527 133.542 19.322C133.806 18.7914 134.176 18.3793 134.654 18.0858C135.131 17.7923 135.69 17.6456 136.33 17.6456C136.97 17.6456 137.529 17.7923 138.007 18.0858C138.484 18.3793 138.854 18.7914 139.118 19.322C139.382 19.8527 139.514 20.4723 139.514 21.1808C139.514 21.8864 139.382 22.503 139.118 23.0307C138.854 23.5584 138.484 23.9689 138.007 24.2624C137.529 24.5559 136.97 24.7027 136.33 24.7027ZM136.335 23.5865C136.75 23.5865 137.094 23.4768 137.366 23.2575C137.639 23.0381 137.841 22.7461 137.971 22.3814C138.104 22.0168 138.171 21.6151 138.171 21.1763C138.171 20.7406 138.104 20.3403 137.971 19.9757C137.841 19.6081 137.639 19.3131 137.366 19.0908C137.094 18.8685 136.75 18.7573 136.335 18.7573C135.917 18.7573 135.57 18.8685 135.294 19.0908C135.021 19.3131 134.818 19.6081 134.685 19.9757C134.554 20.3403 134.489 20.7406 134.489 21.1763C134.489 21.6151 134.554 22.0168 134.685 22.3814C134.818 22.7461 135.021 23.0381 135.294 23.2575C135.57 23.4768 135.917 23.5865 136.335 23.5865ZM142.19 20.5093V24.5648H140.86V17.7345H142.137V18.8462H142.221C142.378 18.4845 142.624 18.194 142.959 17.9746C143.297 17.7553 143.723 17.6456 144.236 17.6456C144.701 17.6456 145.109 17.7434 145.458 17.9391C145.808 18.1318 146.079 18.4193 146.272 18.8018C146.465 19.1842 146.561 19.657 146.561 20.2203V24.5648H145.232V20.3804C145.232 19.8853 145.103 19.4984 144.845 19.2198C144.587 18.9381 144.233 18.7973 143.782 18.7973C143.474 18.7973 143.199 18.864 142.959 18.9974C142.722 19.1308 142.534 19.3265 142.395 19.5844C142.258 19.8393 142.19 20.1477 142.19 20.5093ZM156.457 17.8501C156.409 17.4292 156.214 17.1031 155.87 16.8718C155.526 16.6376 155.093 16.5205 154.571 16.5205C154.198 16.5205 153.875 16.5798 153.602 16.6984C153.329 16.814 153.117 16.9741 152.966 17.1787C152.818 17.3803 152.744 17.61 152.744 17.8679C152.744 18.0843 152.794 18.2711 152.895 18.4282C152.999 18.5853 153.133 18.7173 153.299 18.824C153.468 18.9277 153.649 19.0152 153.842 19.0863C154.035 19.1545 154.22 19.2109 154.398 19.2553L155.287 19.4866C155.578 19.5577 155.876 19.6541 156.181 19.7756C156.486 19.8971 156.769 20.0572 157.03 20.2559C157.291 20.4545 157.502 20.7005 157.662 20.994C157.825 21.2875 157.906 21.6388 157.906 22.0479C157.906 22.5638 157.773 23.0218 157.506 23.422C157.242 23.8222 156.858 24.1379 156.354 24.3692C155.853 24.6004 155.247 24.716 154.536 24.716C153.854 24.716 153.264 24.6078 152.766 24.3914C152.268 24.175 151.878 23.8682 151.596 23.4709C151.315 23.0707 151.159 22.5964 151.129 22.0479H152.508C152.535 22.377 152.641 22.6512 152.828 22.8706C153.018 23.087 153.259 23.2486 153.553 23.3553C153.849 23.459 154.174 23.5109 154.527 23.5109C154.915 23.5109 155.261 23.4502 155.563 23.3286C155.868 23.2041 156.108 23.0322 156.283 22.8128C156.458 22.5904 156.546 22.331 156.546 22.0346C156.546 21.7648 156.469 21.544 156.314 21.372C156.163 21.2001 155.957 21.0578 155.696 20.9451C155.438 20.8325 155.146 20.7332 154.82 20.6472L153.744 20.3537C153.015 20.1551 152.437 19.8631 152.01 19.4777C151.586 19.0923 151.374 18.5824 151.374 17.948C151.374 17.4232 151.516 16.9652 151.801 16.5739C152.085 16.1826 152.471 15.8787 152.957 15.6623C153.443 15.4429 153.992 15.3332 154.602 15.3332C155.219 15.3332 155.763 15.4414 156.234 15.6579C156.709 15.8743 157.082 16.1722 157.355 16.5517C157.628 16.9282 157.77 17.361 157.782 17.8501H156.457ZM162.181 24.7027C161.52 24.7027 160.951 24.553 160.473 24.2535C159.999 23.9512 159.634 23.5346 159.379 23.004C159.125 22.4733 158.997 21.8656 158.997 21.1808C158.997 20.4871 159.127 19.8749 159.388 19.3443C159.649 18.8106 160.017 18.3941 160.491 18.0947C160.966 17.7953 161.524 17.6456 162.168 17.6456C162.686 17.6456 163.149 17.7419 163.555 17.9346C163.961 18.1244 164.289 18.3912 164.538 18.735C164.79 19.0789 164.939 19.4806 164.987 19.9401H163.693C163.622 19.62 163.459 19.3443 163.204 19.113C162.952 18.8818 162.614 18.7662 162.19 18.7662C161.819 18.7662 161.495 18.864 161.216 19.0597C160.94 19.2524 160.725 19.5281 160.571 19.8868C160.417 20.2425 160.34 20.6635 160.34 21.1497C160.34 21.6477 160.416 22.0776 160.567 22.4392C160.718 22.8009 160.931 23.0811 161.207 23.2797C161.486 23.4783 161.813 23.5776 162.19 23.5776C162.442 23.5776 162.67 23.5317 162.875 23.4398C163.082 23.3449 163.256 23.21 163.395 23.0351C163.537 22.8602 163.637 22.6497 163.693 22.4037H164.987C164.939 22.8454 164.796 23.2397 164.556 23.5865C164.315 23.9334 163.994 24.2061 163.591 24.4047C163.19 24.6034 162.721 24.7027 162.181 24.7027ZM169.148 24.7027C168.508 24.7027 167.949 24.5559 167.472 24.2624C166.994 23.9689 166.624 23.5584 166.36 23.0307C166.096 22.503 165.964 21.8864 165.964 21.1808C165.964 20.4723 166.096 19.8527 166.36 19.322C166.624 18.7914 166.994 18.3793 167.472 18.0858C167.949 17.7923 168.508 17.6456 169.148 17.6456C169.788 17.6456 170.347 17.7923 170.825 18.0858C171.302 18.3793 171.672 18.7914 171.936 19.322C172.2 19.8527 172.332 20.4723 172.332 21.1808C172.332 21.8864 172.2 22.503 171.936 23.0307C171.672 23.5584 171.302 23.9689 170.825 24.2624C170.347 24.5559 169.788 24.7027 169.148 24.7027ZM169.153 23.5865C169.568 23.5865 169.911 23.4768 170.184 23.2575C170.457 23.0381 170.659 22.7461 170.789 22.3814C170.922 22.0168 170.989 21.6151 170.989 21.1763C170.989 20.7406 170.922 20.3403 170.789 19.9757C170.659 19.6081 170.457 19.3131 170.184 19.0908C169.911 18.8685 169.568 18.7573 169.153 18.7573C168.735 18.7573 168.388 18.8685 168.112 19.0908C167.839 19.3131 167.636 19.6081 167.503 19.9757C167.372 20.3403 167.307 20.7406 167.307 21.1763C167.307 21.6151 167.372 22.0168 167.503 22.3814C167.636 22.7461 167.839 23.0381 168.112 23.2575C168.388 23.4768 168.735 23.5865 169.153 23.5865ZM173.678 24.5648V17.7345H174.964V18.8195H175.035C175.159 18.4519 175.379 18.1629 175.693 17.9524C176.01 17.739 176.369 17.6322 176.769 17.6322C176.852 17.6322 176.95 17.6352 177.062 17.6411C177.178 17.6471 177.268 17.6545 177.334 17.6634V18.9352C177.28 18.9203 177.185 18.904 177.049 18.8862C176.913 18.8655 176.776 18.8551 176.64 18.8551C176.326 18.8551 176.046 18.9218 175.8 19.0552C175.556 19.1857 175.364 19.368 175.221 19.6022C175.079 19.8334 175.008 20.0973 175.008 20.3937V24.5648H173.678ZM181.046 24.7027C180.373 24.7027 179.793 24.5589 179.307 24.2713C178.824 23.9808 178.45 23.5732 178.186 23.0485C177.926 22.5208 177.795 21.9027 177.795 21.1941C177.795 20.4945 177.926 19.8779 178.186 19.3443C178.45 18.8106 178.818 18.3941 179.289 18.0947C179.764 17.7953 180.318 17.6456 180.952 17.6456C181.338 17.6456 181.711 17.7093 182.073 17.8368C182.435 17.9643 182.759 18.1644 183.047 18.4371C183.334 18.7099 183.561 19.0641 183.727 19.4999C183.893 19.9327 183.976 20.4589 183.976 21.0785V21.5499H178.547V20.5538H182.673C182.673 20.204 182.602 19.8942 182.46 19.6244C182.318 19.3517 182.117 19.1367 181.86 18.9796C181.605 18.8225 181.305 18.7439 180.961 18.7439C180.588 18.7439 180.262 18.8358 179.983 19.0196C179.707 19.2005 179.494 19.4376 179.343 19.7311C179.194 20.0217 179.12 20.3374 179.12 20.6783V21.4565C179.12 21.913 179.2 22.3014 179.36 22.6216C179.523 22.9417 179.75 23.1863 180.041 23.3553C180.331 23.5213 180.671 23.6043 181.059 23.6043C181.311 23.6043 181.541 23.5687 181.748 23.4976C181.956 23.4235 182.135 23.3138 182.286 23.1685C182.438 23.0233 182.553 22.8439 182.633 22.6305L183.892 22.8572C183.791 23.2278 183.61 23.5524 183.349 23.8311C183.091 24.1068 182.767 24.3217 182.375 24.4759C181.987 24.6271 181.544 24.7027 181.046 24.7027Z" fill="#4D4D4D"/>
<line x1="17.0346" y1="38.1034" x2="466.046" y2="38.1034" stroke="#E4E5E7" stroke-width="0.715555"/>
<path d="M419.518 26.9945H418.009L420.757 19.1884H422.503L425.254 26.9945H423.745L421.66 20.7893H421.599L419.518 26.9945ZM419.568 23.9338H423.684V25.0697H419.568V23.9338ZM428.234 27.0974C427.774 27.0974 427.362 26.9793 426.999 26.7429C426.636 26.5066 426.349 26.1636 426.138 25.7138C425.927 25.2641 425.821 24.7177 425.821 24.0749C425.821 23.4244 425.928 22.8755 426.141 22.4283C426.357 21.9785 426.648 21.6393 427.014 21.4106C427.38 21.1793 427.788 21.0637 428.238 21.0637C428.581 21.0637 428.863 21.1222 429.084 21.2391C429.305 21.3534 429.48 21.4919 429.61 21.6545C429.74 21.8146 429.84 21.9658 429.911 22.1081H429.968V19.1884H431.352V26.9945H429.995V26.0721H429.911C429.84 26.2144 429.737 26.3656 429.602 26.5257C429.468 26.6832 429.29 26.8179 429.069 26.9297C428.848 27.0415 428.569 27.0974 428.234 27.0974ZM428.619 25.9654C428.911 25.9654 429.16 25.8866 429.366 25.7291C429.572 25.569 429.728 25.3466 429.835 25.062C429.942 24.7775 429.995 24.4458 429.995 24.0672C429.995 23.6886 429.942 23.3596 429.835 23.08C429.731 22.8005 429.576 22.5833 429.37 22.4283C429.167 22.2733 428.916 22.1958 428.619 22.1958C428.311 22.1958 428.055 22.2758 427.849 22.4359C427.643 22.596 427.488 22.817 427.384 23.0991C427.28 23.3812 427.228 23.7039 427.228 24.0672C427.228 24.4331 427.28 24.7597 427.384 25.0468C427.491 25.3314 427.647 25.5563 427.853 25.7214C428.061 25.8841 428.317 25.9654 428.619 25.9654ZM432.84 26.9945V21.14H434.159V22.1348H434.227C434.349 21.7994 434.551 21.5376 434.833 21.3496C435.115 21.159 435.452 21.0637 435.844 21.0637C436.24 21.0637 436.574 21.1603 436.846 21.3534C437.12 21.544 437.313 21.8044 437.425 22.1348H437.486C437.616 21.8095 437.834 21.5503 438.142 21.3572C438.452 21.1616 438.819 21.0637 439.243 21.0637C439.782 21.0637 440.222 21.234 440.562 21.5745C440.903 21.915 441.073 22.4117 441.073 23.0648V26.9945H439.689V23.2782C439.689 22.9149 439.593 22.6493 439.4 22.4816C439.207 22.3114 438.97 22.2263 438.691 22.2263C438.358 22.2263 438.097 22.3304 437.909 22.5388C437.724 22.7446 437.631 23.0127 437.631 23.343V26.9945H436.278V23.2211C436.278 22.9187 436.187 22.6773 436.004 22.4969C435.823 22.3165 435.587 22.2263 435.295 22.2263C435.096 22.2263 434.916 22.2771 434.753 22.3787C434.591 22.4778 434.461 22.6188 434.365 22.8018C434.268 22.9822 434.22 23.1931 434.22 23.4345V26.9945H432.84ZM442.491 26.9945V21.14H443.87V26.9945H442.491ZM443.184 20.309C442.966 20.309 442.778 20.2366 442.62 20.0918C442.463 19.9444 442.384 19.7678 442.384 19.562C442.384 19.3536 442.463 19.177 442.62 19.0322C442.778 18.8848 442.966 18.8111 443.184 18.8111C443.405 18.8111 443.593 18.8848 443.748 19.0322C443.906 19.177 443.985 19.3536 443.985 19.562C443.985 19.7678 443.906 19.9444 443.748 20.0918C443.593 20.2366 443.405 20.309 443.184 20.309ZM446.687 23.5641V26.9945H445.307V21.14H446.626V22.1348H446.695C446.829 21.807 447.044 21.5465 447.339 21.3534C447.636 21.1603 448.003 21.0637 448.44 21.0637C448.844 21.0637 449.196 21.1501 449.496 21.3229C449.798 21.4957 450.032 21.746 450.197 22.0738C450.365 22.4016 450.448 22.7993 450.445 23.2668V26.9945H449.065V23.4803C449.065 23.0889 448.964 22.7827 448.76 22.5617C448.56 22.3406 448.281 22.2301 447.926 22.2301C447.684 22.2301 447.47 22.2834 447.282 22.3902C447.096 22.4943 446.95 22.6455 446.843 22.8437C446.739 23.0419 446.687 23.2821 446.687 23.5641Z" fill="#0F2552"/>
<path d="M458.152 21.3029L461.574 24.7241L464.995 21.3029L466.046 22.3613L461.574 26.8335L457.101 22.3613L458.152 21.3029Z" fill="#848A95"/>
<path d="M56.4938 156.936L73.6959 152.569C77.159 151.689 80.3157 149.882 82.8267 147.342L90.0908 139.992C97.4034 132.593 109.987 135.818 112.871 145.831V145.831C113.876 149.321 116.231 152.268 119.412 154.018L122.106 155.5C125.084 157.138 128.803 156.423 130.954 153.798L134.422 149.567C138.913 144.087 147.726 145.999 149.566 152.852V152.852C151.643 160.586 162.166 161.676 165.755 154.528L169.571 146.93L181.732 120.133L187.812 106.735L190.852 100.036V100.036C191.969 97.5737 195.509 97.706 196.449 100.245L202.889 117.643C203.283 118.708 203.845 119.703 204.552 120.591L207.237 123.963C208.864 126.006 210.212 128.257 211.245 130.657L214.567 138.377C215.367 140.235 216.84 141.722 218.691 142.539V142.539C221.414 143.74 224.576 143.329 226.897 141.473L227.164 141.259C228.368 140.296 229.288 139.026 229.828 137.581L242.558 103.516L249.336 85.3801L253.729 74.6308V74.6308C255.668 68.9904 263.671 69.0774 265.508 74.7588L274.756 103.359C275.646 106.111 277.358 108.524 279.662 110.273V110.273C282.628 112.523 286.36 113.512 290.046 113.023L299.222 111.806C301.173 111.548 303.095 111.107 304.963 110.489L307.884 109.523C317.582 106.317 328.269 108.953 335.382 116.307V116.307L345.298 127.367C349.996 132.608 357.9 133.422 363.55 129.248L364.263 128.721C364.583 128.485 364.927 128.284 365.29 128.122V128.122C367.667 127.065 370.463 127.824 371.983 129.94L374.467 133.396C374.896 133.993 375.417 134.519 376.01 134.954V134.954C378.927 137.094 382.991 136.652 385.372 133.936L405.088 111.45C405.936 110.482 406.941 109.665 408.061 109.031V109.031C413.243 106.098 419.813 107.62 423.193 112.536L425.768 116.282L428.721 120.229C429.159 120.815 429.678 121.336 430.263 121.777V121.777C433.948 124.558 439.224 123.526 441.581 119.564L447.51 109.595L460.838 86.6237" stroke="url(#paint0_linear_4014_379)" stroke-width="6.26111" stroke-linecap="round"/>
<defs>
<linearGradient id="paint0_linear_4014_379" x1="259.704" y1="22.7449" x2="159.258" y2="223.28" gradientUnits="userSpaceOnUse">
<stop stop-color="#1B59F8"/>
<stop offset="1" stop-color="#1B59F8" stop-opacity="0"/>
</linearGradient>
</defs>
</svg>
